<svg width="259" height="87" viewBox="0 0 259 87" fill="none" xmlns="http://www.w3.org/2000/svg">
<path d="M77.6447 0H8.63971C3.86813 0 0 3.86813 0 8.63971V77.6447C0 82.4163 3.86813 86.2844 8.63971 86.2844H77.6447C82.4163 86.2844 86.2844 82.4163 86.2844 77.6447V8.63971C86.2844 3.86813 82.4163 0 77.6447 0Z" fill="#83D0F5"/>
<path d="M37.2445 27.6841C35.5541 29.3557 33.1876 30.3512 30.1637 30.6705L39.6486 41.3386V42.2401H32.7556L22.5194 30.7456H14.4807V42.2401H8.48926V10.8555H28.1164C31.7601 10.8555 34.615 11.7382 36.681 13.5037C38.747 15.2692 39.7988 17.6921 39.7988 20.7536V21.3358C39.7988 23.8902 38.9536 25.9937 37.2632 27.6841H37.2445ZM33.6947 20.5282C33.6947 19.1571 33.2063 18.0865 32.2109 17.354C31.2154 16.6028 29.8068 16.2271 27.9474 16.2271H14.4431V25.4678H27.9474C29.8068 25.4678 31.2154 25.0922 32.2109 24.3409C33.2063 23.5896 33.6947 22.5191 33.6947 21.1104V20.5282Z" fill="#3C3C3B"/>
<path d="M77.6637 25.3737V42.2775H72.2545L72.0103 39.0657C68.9113 41.5825 64.8544 42.8409 59.8584 42.8409C56.0269 42.8409 52.7024 42.2023 49.8851 40.9064C47.0679 39.6104 44.8891 37.7698 43.349 35.3845C41.8089 32.9992 41.0576 30.1631 41.0576 26.9138V26.294C41.0576 23.1011 41.8277 20.3026 43.3866 17.8985C44.9267 15.4944 47.143 13.6162 49.9978 12.3014C52.8527 10.9867 56.1583 10.3105 59.9335 10.3105C63.4457 10.3105 66.5448 10.7801 69.2118 11.7192C71.8976 12.6583 73.9636 13.9918 75.4286 15.7385C76.8936 17.4853 77.6261 19.4761 77.6261 21.7488V21.9929H71.5408V21.7488C71.5408 20.697 71.0149 19.7203 69.9819 18.8C68.9489 17.8985 67.5402 17.166 65.7747 16.6401C64.0092 16.1142 62.0559 15.8512 59.9523 15.8512C55.8954 15.8512 52.74 16.7528 50.5049 18.5558C48.2511 20.3589 47.1242 22.9132 47.1242 26.1813V26.9889C47.1242 30.3321 48.2135 32.8865 50.411 34.652C52.5897 36.3987 55.7827 37.2815 59.9523 37.2815C62.4691 37.2815 64.7229 36.9058 66.695 36.1733C68.6671 35.4408 70.3387 34.4266 71.6722 33.1494V30.7078H55.6324V25.3549H77.6449L77.6637 25.3737Z" fill="#3C3C3B"/>
<path d="M109.837 28.7923C110.626 29.9192 111.039 31.2715 111.039 32.8304V33.3563C111.039 35.1406 110.569 36.6995 109.63 38.0518C108.691 39.3853 107.358 40.4371 105.63 41.1696C103.902 41.9021 101.892 42.2777 99.6006 42.2777H80.3115V10.8555H98.6427C102.249 10.8555 105.047 11.5692 107.038 12.9778C109.029 14.4053 110.025 16.3961 110.025 18.9881V19.514C110.025 22.3876 108.804 24.5851 106.381 26.1252C107.883 26.7638 109.029 27.6466 109.818 28.7735L109.837 28.7923ZM86.2842 16.2271V23.7399H98.5864C100.408 23.7399 101.761 23.4582 102.625 22.8759C103.507 22.2937 103.939 21.4297 103.939 20.2465V19.7206C103.939 18.5749 103.488 17.7109 102.568 17.1099C101.667 16.5276 100.333 16.2271 98.6239 16.2271H86.2842ZM104.953 32.6426C104.953 31.4593 104.503 30.5765 103.62 29.9943C102.718 29.4121 101.347 29.1115 99.5067 29.1115H86.303V36.9061H99.5067C101.235 36.9061 102.568 36.5868 103.526 35.9294C104.484 35.272 104.953 34.3517 104.953 33.1685V32.6426Z" fill="#3C3C3B"/>
<path d="M45.0953 58.5065V75.4103H39.6861L39.4419 72.1986C36.3429 74.7153 32.286 75.9737 27.29 75.9737C23.4585 75.9737 20.1341 75.3352 17.3168 74.0392C14.4995 72.7432 12.3208 70.9026 10.7807 68.5173C9.24054 66.132 8.48926 63.2959 8.48926 60.0466V59.4268C8.48926 56.2339 9.25932 53.4354 10.8182 51.0313C12.3583 48.6272 14.5746 46.749 17.4295 45.4343C20.2843 44.1195 23.59 43.4434 27.3651 43.4434C30.8774 43.4434 33.9764 43.9129 36.6434 44.852C39.3293 45.7911 41.3953 47.1246 42.8603 48.8713C44.3253 50.6181 45.0578 52.609 45.0578 54.8816V55.1257H38.9724V54.8816C38.9724 53.8298 38.4465 52.8531 37.4135 51.9328C36.3805 51.0313 34.9718 50.2988 33.2063 49.7729C31.4408 49.247 29.4875 48.984 27.3839 48.984C23.327 48.984 20.1716 49.8856 17.9366 51.6886C15.6828 53.4917 14.5558 56.0461 14.5558 59.3141V60.1218C14.5558 63.4649 15.6452 66.0193 17.8427 67.7848C20.0214 69.5315 23.2143 70.4143 27.3839 70.4143C29.9007 70.4143 32.1545 70.0386 34.1267 69.3061C36.0988 68.5736 37.7704 67.5594 39.1039 66.2822V63.8406H23.0641V58.4877H45.0765L45.0953 58.5065Z" fill="#3C3C3B"/>
<path d="M75.2786 60.8357C73.5883 62.5073 71.2217 63.5027 68.1978 63.822L77.6827 74.4902V75.3917H70.7898L60.5536 63.8972H52.5149V75.3917H46.5234V43.9883H66.1506C69.7943 43.9883 72.6492 44.871 74.7152 46.6365C76.7812 48.402 77.833 50.8249 77.833 53.8864V54.4686C77.833 57.023 76.9878 59.1265 75.2974 60.8169L75.2786 60.8357ZM71.6537 53.6798C71.6537 52.3087 71.1654 51.2381 70.1699 50.5056C69.1745 49.7543 67.7659 49.3787 65.9064 49.3787H52.4022V58.6194H65.9064C67.7659 58.6194 69.1745 58.2438 70.1699 57.4925C71.1654 56.7412 71.6537 55.6707 71.6537 54.262V53.6798Z" fill="#3C3C3B"/>
<path d="M112.973 74.49V75.3915H106.888L103.639 68.2168H86.9792L83.7299 75.3915H77.6445V74.49L92.0127 44.0068H98.624L112.992 74.49H112.973ZM101.16 62.8639L95.3184 50.0359L89.4772 62.8639H101.16Z" fill="#3C3C3B"/>
<path d="M132.601 44.0071C136.207 44.0071 139.062 44.871 141.147 46.6178C143.231 48.3645 144.283 50.731 144.283 53.7173V54.2432C144.283 57.2484 143.231 59.6149 141.147 61.3428C139.062 63.0895 136.207 63.9535 132.601 63.9535H118.965V75.3917H112.974V43.9883H132.601V44.0071ZM136.714 57.4737C137.709 56.7225 138.198 55.6519 138.198 54.2432V53.7173C138.198 52.3087 137.709 51.2381 136.714 50.4868C135.719 49.7356 134.31 49.3599 132.451 49.3599H118.946V58.6007H132.451C134.31 58.6007 135.719 58.225 136.714 57.4737Z" fill="#3C3C3B"/>
<path d="M152.791 44.0068V57.0227H171.893V44.0068H177.884V75.4103H171.893V62.3944H152.791V75.4103H146.8V44.0068H152.791Z" fill="#3C3C3B"/>
<path d="M186.373 44.0068V75.4103H180.382V44.0068H186.373Z" fill="#3C3C3B"/>
<path d="M197.662 74.0197C194.844 72.7049 192.684 70.8643 191.182 68.4602C189.66 66.0749 188.909 63.2576 188.909 60.0271V59.4073C188.909 56.1768 189.66 53.3783 191.182 50.9554C192.703 48.5513 194.863 46.6919 197.662 45.3771C200.46 44.0624 203.747 43.4238 207.466 43.4238C210.884 43.4238 213.946 43.9873 216.688 45.1142C219.411 46.2411 221.552 47.8188 223.092 49.8285C224.632 51.8382 225.421 54.092 225.421 56.5712V56.9468H219.336V56.5712C219.336 55.1438 218.829 53.829 217.833 52.6646C216.819 51.5001 215.411 50.5985 213.589 49.9412C211.767 49.2838 209.72 48.9645 207.466 48.9645C203.446 48.9645 200.366 49.866 198.206 51.6503C196.046 53.4346 194.976 55.989 194.976 59.3134V60.121C194.976 63.4454 196.046 65.981 198.187 67.7465C200.329 69.512 203.428 70.3947 207.466 70.3947C209.795 70.3947 211.861 70.0754 213.664 69.4369C215.467 68.7983 216.857 67.8967 217.852 66.751C218.848 65.6053 219.336 64.2906 219.336 62.8256V62.45H225.421V62.8256C225.421 65.3236 224.651 67.5587 223.092 69.5496C221.552 71.5404 219.411 73.0993 216.688 74.245C213.964 75.3907 210.884 75.9354 207.466 75.9354C203.728 75.9354 200.46 75.2781 197.662 73.9821V74.0197Z" fill="#3C3C3B"/>
<path d="M231.919 73.2489C229.271 71.427 227.938 68.76 227.938 65.2477V64.8157H233.929V65.2477C233.929 68.8163 237.253 70.6006 243.883 70.6006C246.757 70.6006 248.955 70.2625 250.457 69.5864C251.978 68.9102 252.73 67.9523 252.73 66.6752V66.3371C252.73 65.2289 252.279 64.3838 251.396 63.8391C250.495 63.2944 248.879 62.8624 246.513 62.5431L238.944 61.4913C232.013 60.5335 228.557 57.7349 228.557 53.0582V52.5887C228.557 49.715 229.834 47.4612 232.37 45.846C234.906 44.2119 238.493 43.4043 243.113 43.4043C247.997 43.4043 251.715 44.2871 254.289 46.0338C256.862 47.7805 258.139 50.3348 258.139 53.6968V54.1288H252.147V53.6968C252.147 50.41 249.124 48.7759 243.095 48.7759C240.352 48.7759 238.249 49.0952 236.803 49.7338C235.356 50.3724 234.624 51.2739 234.624 52.4572V52.8328C234.624 53.7907 235.056 54.5232 235.901 55.0116C236.746 55.4999 238.23 55.8943 240.334 56.176L247.94 57.2278C251.678 57.7349 254.42 58.7116 256.167 60.1203C257.914 61.5477 258.796 63.5198 258.796 66.0366V66.5061C258.796 69.4737 257.463 71.7839 254.814 73.4555C252.166 75.1083 248.41 75.9535 243.564 75.9535C238.418 75.9535 234.53 75.0519 231.882 73.2301L231.919 73.2489Z" fill="#3C3C3B"/>
</svg>
