<svg preserveAspectRatio="none" width="100%" height="100%" overflow="visible" style="display: block;" viewBox="0 0 78 78" fill="none" xmlns="http://www.w3.org/2000/svg">
<g id="close_17796253 1">
<path id="Vector" d="M41.585 38.9999L57.5287 23.0562C58.2428 22.3422 58.2428 21.1852 57.5287 20.4712C56.8146 19.7571 55.6577 19.7571 54.9436 20.4712L38.9999 36.4148L23.0562 20.4712C22.3422 19.7571 21.1852 19.7571 20.4712 20.4712C19.7571 21.1852 19.7571 22.3422 20.4712 23.0562L36.4148 38.9999L20.4712 54.9436C19.7571 55.6577 19.7571 56.8146 20.4712 57.5287C20.8283 57.8858 21.296 58.0644 21.7636 58.0644C22.2313 58.0644 22.6992 57.8858 23.0561 57.5287L38.9999 41.585L54.9436 57.5287C55.3007 57.8858 55.7685 58.0644 56.2361 58.0644C56.7037 58.0644 57.1716 57.8858 57.5286 57.5287C58.2427 56.8146 58.2427 55.6577 57.5286 54.9436L41.585 38.9999Z" fill="var(--fill-0, white)"/>
</g>
</svg>
