<svg preserveAspectRatio="none" width="100%" height="100%" overflow="visible" style="display: block;" viewBox="0 0 21.9562 29.7961" fill="none" xmlns="http://www.w3.org/2000/svg">
<g id="Group">
<g id="Vector">
<path d="M10.9783 18.8196C13.5739 18.8196 15.6676 16.7103 15.6676 14.1147L15.6832 4.7049C15.6832 2.10155 13.5817 0 10.9783 0C8.38279 0 6.27345 2.10155 6.27345 4.7049V14.1147C6.27345 16.7103 8.38279 18.8196 10.9783 18.8196Z" fill="var(--fill-0, white)"/>
<path d="M10.9783 18.8196C13.5739 18.8196 15.6676 16.7103 15.6676 14.1147L15.6832 4.7049C15.6832 2.10155 13.5817 0 10.9783 0C8.38279 0 6.27345 2.10155 6.27345 4.7049V14.1147C6.27345 16.7103 8.38279 18.8196 10.9783 18.8196Z" fill="url(#paint0_linear_4039_34)"/>
</g>
<g id="Vector_2">
<path d="M19.2901 14.1132C19.2901 18.8181 15.3144 22.1115 10.9781 22.1115C6.64964 22.1115 2.66613 18.8181 2.66613 14.1132H0C0 19.4689 4.2658 23.8915 9.4098 24.6521V29.7961H12.5464V24.6521C17.6904 23.8915 21.9562 19.4689 21.9562 14.1132H19.2901Z" fill="var(--fill-0, white)"/>
<path d="M19.2901 14.1132C19.2901 18.8181 15.3144 22.1115 10.9781 22.1115C6.64964 22.1115 2.66613 18.8181 2.66613 14.1132H0C0 19.4689 4.2658 23.8915 9.4098 24.6521V29.7961H12.5464V24.6521C17.6904 23.8915 21.9562 19.4689 21.9562 14.1132H19.2901Z" fill="url(#paint1_linear_4039_34)"/>
</g>
</g>
<defs>
<linearGradient id="paint0_linear_4039_34" x1="10.9783" y1="0" x2="10.9783" y2="18.8196" gradientUnits="userSpaceOnUse">
<stop stop-color="#F5C3A0"/>
<stop offset="1" stop-color="#F1A775"/>
</linearGradient>
<linearGradient id="paint1_linear_4039_34" x1="10.9781" y1="14.1132" x2="10.9781" y2="29.7961" gradientUnits="userSpaceOnUse">
<stop stop-color="#F5C3A0"/>
<stop offset="1" stop-color="#F1A775"/>
</linearGradient>
</defs>
</svg>
