<svg preserveAspectRatio="none" width="100%" height="100%" overflow="visible" style="display: block;" viewBox="0 0 19.9812 28.7883" fill="none" xmlns="http://www.w3.org/2000/svg">
<g id="Group">
<g id="Vector">
<path fill-rule="evenodd" clip-rule="evenodd" d="M2.57294 3.045C6.66706 -1.015 13.3141 -1.015 17.4083 3.045C22.5244 8.11855 19.7726 19.0878 11.2656 27.5239L9.9906 28.7883L8.71556 27.5239C0.20857 19.0878 -2.54325 8.11855 2.57294 3.045ZM7.06623 10.1312C7.06623 8.53035 8.37635 7.23115 9.9906 7.23115C11.6049 7.23115 12.915 8.53035 12.915 10.1312C12.915 11.7319 11.6049 13.0312 9.9906 13.0312C8.37635 13.0312 7.06623 11.7319 7.06623 10.1312Z" fill="var(--fill-0, white)"/>
<path fill-rule="evenodd" clip-rule="evenodd" d="M2.57294 3.045C6.66706 -1.015 13.3141 -1.015 17.4083 3.045C22.5244 8.11855 19.7726 19.0878 11.2656 27.5239L9.9906 28.7883L8.71556 27.5239C0.20857 19.0878 -2.54325 8.11855 2.57294 3.045ZM7.06623 10.1312C7.06623 8.53035 8.37635 7.23115 9.9906 7.23115C11.6049 7.23115 12.915 8.53035 12.915 10.1312C12.915 11.7319 11.6049 13.0312 9.9906 13.0312C8.37635 13.0312 7.06623 11.7319 7.06623 10.1312Z" fill="url(#paint0_linear_4039_27)"/>
</g>
</g>
<defs>
<linearGradient id="paint0_linear_4039_27" x1="9.9906" y1="1.49012e-07" x2="9.9906" y2="28.7883" gradientUnits="userSpaceOnUse">
<stop stop-color="#F5C3A0"/>
<stop offset="1" stop-color="#F1A775"/>
</linearGradient>
</defs>
</svg>
