<svg preserveAspectRatio="none" width="100%" height="100%" overflow="visible" style="display: block;" viewBox="0 0 2139.1 1167" fill="none" xmlns="http://www.w3.org/2000/svg">
<g id="Traced Image" opacity="0.05" clip-path="url(#clip0_4071_164)">
<path id="Vector" fill-rule="evenodd" clip-rule="evenodd" d="M1959.54 2.20866C1958.3 3.4232 1951.67 7.22129 1944.8 10.6534C1935.6 15.2524 1932.32 18.2187 1932.32 21.9573C1932.32 24.7453 1930.07 29.4228 1927.32 32.3534C1921.21 38.8563 1923.15 42.7827 1932.46 42.7827C1937.29 42.7827 1939.45 43.9616 1939.45 46.5879C1939.45 49.837 1936.59 50.2696 1919.85 49.5589C1902.34 48.815 1900.27 49.1715 1900.57 52.884C1900.8 55.7908 1899.17 57.0434 1895.15 57.0434C1891.98 57.0434 1888.78 58.6477 1888.03 60.6086C1887.27 62.5694 1884.56 64.1737 1881.99 64.1737C1879.43 64.1737 1872.85 67.1756 1867.39 70.8454C1861.93 74.5127 1851.15 80.6639 1843.45 84.5119C1825.18 93.6387 1803.63 113.501 1797.95 126.431C1795.48 132.059 1789.95 140.868 1785.65 146.006C1773.39 160.654 1775.62 168.752 1791.92 168.752C1799.56 168.752 1807.1 175.923 1805.06 181.247C1804.28 183.27 1799.71 185.466 1794.9 186.134C1774.92 188.9 1769.99 191.237 1764.89 200.359C1762.14 205.257 1756.52 211.323 1752.38 213.837C1743.64 219.154 1739.8 225.336 1739.8 234.114C1739.8 243.659 1735.93 248.904 1726.62 251.978C1718.93 254.516 1717.32 254.202 1709.24 248.603C1691.54 236.338 1670.79 242.699 1659.66 263.804C1650.18 281.78 1643.11 287.582 1630.62 287.648C1624.66 287.679 1615.77 288.637 1610.86 289.776C1602.08 291.812 1601.95 291.739 1601.95 284.706C1601.95 278.115 1601.45 277.692 1595.41 279.175C1583.87 282.015 1578.48 287.068 1576.97 296.485C1574.36 312.726 1573.36 316.113 1571.2 316.113C1570.02 316.113 1568.35 312.904 1567.49 308.982C1565.86 301.595 1562.77 299.658 1560.83 304.823C1560.06 306.881 1558.56 306.332 1555.97 303.04C1552.25 298.33 1552.1 298.351 1538.64 305.512C1528.05 311.148 1524.44 314.546 1522.24 320.961C1519.71 328.301 1520.04 330.274 1525.27 339.315C1531.32 349.773 1531.13 356.518 1524.78 356.518C1522.78 356.518 1521.14 358.122 1521.14 360.083C1521.14 362.044 1522.21 363.648 1523.52 363.648C1524.82 363.648 1525.89 365.39 1525.89 367.52C1525.89 370.848 1523.89 371.166 1511.62 369.778C1497.6 368.19 1497.3 368.278 1494.83 374.769C1491.43 383.718 1488.27 385.344 1477.58 383.637L1468.49 382.182L1470.18 393.465C1473.11 413.016 1473.33 412.427 1463.47 411.845C1451.37 411.134 1445.18 407.41 1442.29 399.117C1440.52 394.038 1438.33 392.17 1434.15 392.17C1427.6 392.17 1427.35 391.518 1431.42 384.863C1433.91 380.771 1433.72 379.504 1430.23 376.908C1427.94 375.209 1426.07 372.122 1426.07 370.044C1426.07 366.018 1412.08 354.141 1407.34 354.141C1405.78 354.141 1401.86 355.876 1398.62 357.999C1394.99 360.383 1390.21 361.35 1386.12 360.53C1376.39 358.586 1373.37 361.547 1374.23 372.195C1374.91 380.709 1374.29 381.805 1366.65 385.626C1355.58 391.164 1341.06 390.917 1332.19 385.039C1319.66 376.74 1300.55 380.369 1291.93 392.685L1288.22 397.981L1284.52 392.7C1279.83 386.011 1269.55 385.779 1261.42 392.177C1258.09 394.794 1253.79 396.331 1251.86 395.59C1249.68 394.756 1246.38 397.009 1243.16 401.525C1240.31 405.53 1235.91 408.807 1233.39 408.807C1230.86 408.807 1226.66 410.946 1224.04 413.561C1213.53 424.078 1220.23 413.29 1234.74 396.358C1243.24 386.437 1250.19 377.362 1250.19 376.191C1250.19 375.019 1255.02 368.392 1260.94 361.466C1277.32 342.279 1277.88 340.567 1270.41 332.769C1266.39 328.574 1265 325.558 1266.63 324.553C1271.9 321.296 1268.88 315.804 1258.04 308.93C1244.45 300.312 1230.34 299.273 1226.42 306.606C1222.88 313.227 1219.93 312.536 1218.2 304.673C1217.12 299.782 1214.49 297.177 1208.38 294.966C1201.6 292.516 1200.55 291.316 1202.79 288.611C1206.53 284.107 1203.88 278.084 1198.15 278.084C1195.6 278.084 1190.22 281.376 1186.2 285.398C1179.26 292.338 1177.59 297.186 1178.55 307.625C1179.05 312.982 1175.1 316.025 1167.59 316.077C1164.65 316.096 1162.25 317.051 1162.25 318.197C1162.25 319.343 1156.98 322.549 1150.54 325.318C1139.48 330.076 1131.35 330.095 1131.35 325.365C1131.35 321.441 1122.62 323.198 1118.28 327.997C1115.67 330.875 1110.96 332.75 1106.32 332.75C1091.79 332.75 1067.56 344.235 1070.85 349.559C1071.5 350.612 1070.23 352.477 1068.04 353.704C1065.24 355.272 1063.73 360.093 1062.99 369.894C1061.81 385.493 1056.73 392.674 1051.73 385.826C1049.57 382.872 1043.35 381.707 1024.98 380.823L1001.04 379.67L999.361 393.142C998.08 403.39 998.505 407.588 1001.14 410.682C1003.04 412.919 1006.8 419.348 1009.5 424.972C1013.88 434.084 1014.07 436.147 1011.32 443.986C1006.14 458.743 1002.28 489.454 1005.18 492.943C1006.57 494.623 1007.01 496.701 1006.15 497.561C1002.17 501.537 998.838 498.205 996.482 487.906C994.388 478.758 994.593 475.376 997.583 469.591C1000.15 464.635 1000.44 462.223 998.562 461.598C997.081 461.103 995.872 457.557 995.872 453.716C995.872 448.575 997.438 446.02 1001.81 444.026C1009.83 440.373 1009.29 436.166 1000.33 432.454C995.696 430.533 991.669 426.412 989.606 421.471C987.788 417.119 984.824 413.561 983.023 413.561C981.219 413.561 979.127 411.956 978.374 409.996C977.623 408.035 974.835 406.43 972.177 406.43C968.705 406.43 967.35 407.987 967.35 411.975C967.35 420.244 964.767 421.326 958.685 415.609C954.169 411.369 952.602 411.006 949.593 413.504C944.431 417.789 944.93 419.538 954.278 429.884C963.208 439.769 964.736 444.459 959.032 444.459C957.071 444.459 955.466 443.494 955.466 442.317C955.466 441.139 951.723 437.965 947.148 435.268C939.758 430.906 938.829 429.255 938.829 420.458C938.829 414.576 940.837 407.307 943.777 402.551C948.659 394.649 946.851 391.309 941.305 397.99C939.734 399.885 934.784 402.644 930.301 404.123C920.368 407.4 917.438 412.415 917.438 426.124C917.438 433.571 915.715 438.973 911.515 444.701C895.194 466.955 894.854 477.14 910.25 482.478C921.436 486.354 931.699 498.029 931.699 506.878C931.699 509.447 929.403 515.634 926.598 520.625L921.497 529.7L927.786 537.175C936.735 547.808 935.575 549.741 924.568 542.534C914.217 535.756 913.24 532.381 918.641 522.028C926.032 507.857 919.696 494.371 905.647 494.371C899.372 494.371 898.314 495.467 895.918 504.473C894.44 510.03 890.735 517.878 887.683 521.913C881.17 530.525 851.812 546.661 842.659 546.661C831.327 546.661 815.236 535.25 815.236 527.211C815.236 523.389 815.895 523.221 820.584 525.845C823.526 527.489 827.759 530.299 829.996 532.088C835.762 536.702 845.003 533.726 854.971 524.045C859.587 519.563 865.415 515.244 867.92 514.448C870.465 513.64 873.073 510.011 873.831 506.217C874.577 502.483 876.674 498.859 878.487 498.162C880.66 497.33 881.793 493.017 881.81 485.532C881.824 478.454 884.063 469.375 887.752 461.455C891.006 454.463 893.67 447.679 893.67 446.379C893.67 445.082 895.809 441.3 898.424 437.977C901.425 434.163 903.18 428.328 903.182 422.153C903.187 414.647 905.423 409.081 912.803 398.216C925.238 379.913 925.046 371.565 912.047 365.215L903.092 360.839L888.337 374.498C880.222 382.011 869.013 390.18 863.425 392.652C856.065 395.906 853.265 398.537 853.265 402.19C853.265 404.964 850.056 412.919 846.134 419.869C838.676 433.084 837.126 441.06 841.721 442.591C843.734 443.263 843.693 444.891 841.564 448.87C839.981 451.827 839.339 457.215 840.138 460.844C842.17 470.1 834.208 480.253 828.582 475.583C826.471 473.831 824.743 470.551 824.743 468.293C824.743 466.035 821.554 459.483 817.656 453.728C813.758 447.977 810.549 441.074 810.525 438.389C810.423 426.871 786.525 399.3 776.644 399.3C772.692 399.3 770.077 404.075 770.077 411.296C770.077 416.075 765.742 419.082 755.222 421.597C749.033 423.075 748.686 422.714 748.686 414.794C748.686 406.704 748.394 406.43 739.709 406.43C734.77 406.43 728.084 404.579 724.854 402.314C721.622 400.051 714.275 397.643 708.528 396.966C694.448 395.307 691.197 390.026 698.325 380.383L703.67 373.155H695.42C690.883 373.155 686.498 374.244 685.675 375.575C684.753 377.065 681.535 376.112 677.297 373.094C666.792 365.614 644.469 362.5 624.73 365.759C601.618 369.576 597.207 366.588 598.818 348.199C599.375 341.841 608.254 334.509 613.008 336.482C623.644 340.891 624.728 340.47 627.627 330.785C629.203 325.527 629.847 319.538 629.056 317.479C626.822 311.659 616.25 312.89 611.936 319.476C609.866 322.635 603.981 326.894 598.856 328.945C592.168 331.621 588.574 334.98 586.126 340.838C584.249 345.33 580.429 350.227 577.636 351.722C570.23 355.686 562.156 353.882 561.866 348.199C561.733 345.585 561.465 342.15 561.272 340.567C560.799 336.705 538.828 330.373 525.903 330.373C516.258 330.373 515.27 330.972 511.999 338.797C504.636 356.423 492.434 349.708 489.921 326.644C489.101 319.103 487.359 312.595 486.052 312.184C481.201 310.658 477.336 315.709 476.055 325.242C473.933 341.066 463.758 344.817 458.743 331.624C457.488 328.322 455.427 325.62 454.165 325.62C452.903 325.62 453.404 322.677 455.28 319.084C457.155 315.488 458.695 309.215 458.705 305.144C458.724 295.834 465.987 286.453 477.878 280.387C488.075 275.184 491.994 269.618 491.994 260.334C491.994 254.606 503.255 229.049 504.959 230.907C505.38 231.364 506.426 239.224 507.286 248.374C511.222 290.213 526.124 318.549 544.133 318.437C557.275 318.356 572.293 310.525 574.504 302.601C575.531 298.921 576.37 278.619 576.37 257.487C576.37 221.367 576.049 218.629 571.022 211.829C564.69 203.268 564.222 196.689 569.56 191.351C572.876 188.035 572.992 186.616 570.347 181.672C568.643 178.487 565.924 175.883 564.303 175.883C562.684 175.883 556.181 173.254 549.849 170.043C540.105 165.099 536.749 164.512 527.95 166.211C517.081 168.312 514.321 170.787 511.857 180.636C509.936 188.306 504.165 194.892 499.35 194.911C487.238 194.951 477.681 200.275 469.357 211.61C464.107 218.762 458.182 224.029 454.353 224.946C443.151 227.63 435.296 232.747 432.092 239.454C430.326 243.148 426.647 246.328 423.64 246.758C420.709 247.174 418.314 249.033 418.314 250.884C418.314 252.736 414.608 255.802 410.08 257.694C401.847 261.133 398.748 266.989 399.924 276.881C400.317 280.183 397.964 282.935 392.169 285.951C380.946 291.796 355.136 289.864 313.842 280.09C311.941 279.641 310.246 280.342 310.073 281.649C309.901 282.957 309.079 285.63 308.247 287.591C307.415 289.552 306.438 297.039 306.075 304.229L305.416 317.301L300.128 308.797C297.219 304.119 292.183 299.083 288.941 297.605C280.472 293.747 263.286 299.466 247.732 311.321C234.146 321.674 231.701 322.734 233.754 317.377C236.276 310.808 231.033 311.376 223.408 318.499C219.215 322.416 214.792 325.62 213.58 325.62C212.365 325.62 209.264 329.194 206.687 333.563C204.109 337.932 199.331 342.721 196.07 344.209C189.422 347.237 188.84 349.735 193.03 357.269C194.618 360.124 196.177 365.134 196.498 368.402C196.819 371.67 197.734 378.087 198.53 382.663C199.873 390.347 199.153 391.671 189.099 400.03C176.169 410.782 169.006 423.786 167.085 439.991L165.683 451.834L157.172 451.119C151.125 450.608 147.883 448.839 145.987 445.01C141.473 435.905 140.484 436.066 128.465 447.908L116.809 459.387L129.708 471.176C138.676 479.371 142.607 484.757 142.607 488.85C142.607 494.692 132.774 506.666 125.946 509.138C122.877 510.248 122.958 511.437 126.564 518.037C132.182 528.326 131.819 532.186 124.51 539.813C120.413 544.089 117.896 549.848 117.123 556.714C115.951 567.091 115.985 567.144 125.991 571.072C134.88 574.566 135.864 575.695 134.552 580.917C133.663 584.463 134.975 591.646 137.839 598.914C142.624 611.052 144.05 626.596 140.789 631.036C138.583 634.038 124.301 644.109 122.25 644.109C121.404 644.109 117.537 646.782 113.653 650.051C105.154 657.2 101.308 657.476 95.2044 651.372C89.7045 645.872 74.3838 642.454 70.8875 645.951C69.2238 647.614 70.0319 649.967 73.4426 653.378C79.4225 659.358 80.2307 666.697 74.6737 664.566C72.6059 663.772 70.0153 663.123 68.9148 663.123C67.8144 663.123 63.4934 660.242 59.3102 656.725C51.9755 650.552 51.5881 650.483 48.4317 654.802C46.6325 657.264 45.1589 661.654 45.1589 664.558C45.1589 669.45 44.6265 669.64 37.9786 667.13C32.4859 665.058 29.6979 665.105 26.1256 667.337C18.8099 671.905 15.3041 670.881 7.37754 661.851L5.95872e-06 653.449L0.0808166 671.953C0.2258 705.377 4.24969 739.284 8.83926 745.761C15.3802 754.985 16.0171 756.331 18.7885 766.774C20.2169 772.148 24.5403 780.517 28.3978 785.373C32.7687 790.873 36.0201 798.388 37.0255 805.311C39.0957 819.598 41.5961 824.266 52.0587 833.386C60.4083 840.668 60.6103 841.248 60.6721 858.342C60.7078 867.968 61.9104 877.984 63.346 880.598C64.7792 883.213 66.7115 891.591 67.6361 899.213C69.6492 915.815 74.9162 922.192 86.6123 922.192C91.1116 922.192 95.4349 921.149 96.2216 919.875C97.0107 918.601 99.2402 909.267 101.18 899.135C103.119 889 105.479 879.95 106.425 879.018C108.236 877.235 118.754 875.182 127.752 874.851C135.45 874.571 134.445 867.997 126.564 867.089C119.505 866.278 119.619 866.991 122.972 844.947C124.743 833.319 124.988 833.03 134.288 831.561C139.517 830.734 147.215 828.649 151.394 826.926C157.899 824.247 160.837 824.378 171.806 827.836C191.079 833.911 212.729 832.547 202.026 825.932C197.858 823.356 199.474 813.557 204.634 810.132C208.052 807.859 209.998 803.443 210.83 796.066C211.871 786.832 211.122 784.213 205.542 777.584C199.436 770.328 199.298 769.672 203.262 766.772C206.347 764.516 207.051 761.978 205.884 757.327C203.702 748.63 207.74 741.63 213.994 743.266C219.272 744.646 230.548 735.981 230.548 730.543C230.548 726.657 246.256 721.87 255.547 722.925C262.185 723.679 262.634 724.377 262.634 733.918C262.634 750.063 271.994 752.789 278.295 738.479C281.335 731.577 282.751 730.792 293.409 730.117C299.879 729.708 307.57 730.657 310.5 732.225C313.78 733.982 319.584 734.479 325.586 733.518C334.822 732.042 335.473 732.335 337.795 738.997C339.721 744.518 341.874 746.194 347.79 746.767C354.212 747.389 355.443 748.554 356.092 754.629C356.513 758.551 359.453 764.21 362.628 767.202C367.517 771.813 368.401 774.87 368.401 787.179C368.401 801.116 368.579 801.551 372.753 797.775C378.03 793 380.285 794.789 380.285 803.75C380.285 813.808 387.817 819.99 400.074 819.99C407.968 819.99 411.651 821.371 415.937 825.932C419.008 829.2 422.77 831.874 424.301 831.874C428.496 831.874 434.951 839.951 434.951 845.199C434.951 852.091 441.673 860.396 447.251 860.396C449.944 860.396 455.874 863.664 460.423 867.662C465.405 872.035 470.731 874.635 473.809 874.198C478.266 873.561 478.919 871.942 478.905 861.584C478.895 855.048 478.211 845.272 477.384 839.86L475.879 830.018L482.501 833.819C490.1 838.18 495.894 835.333 497.199 826.598C498.449 818.227 505.237 815.793 513.753 820.658C521.466 825.067 525.827 824.352 520.95 819.475C515.348 813.873 519.106 793.846 525.758 793.846C527.244 793.846 530.215 795.434 532.359 797.373C537.685 802.193 607.653 821.852 628.445 824.369C637.712 825.49 649.254 825.923 654.09 825.331C660.413 824.554 664.798 825.614 669.684 829.094C673.426 831.756 679.36 834.658 682.876 835.539C688.257 836.889 689.267 838.43 689.267 845.282C689.267 849.757 687.743 857.064 685.882 861.52C682.079 870.618 683.589 873.14 694.47 875.871C698.467 876.874 700.378 878.659 699.606 880.667C698.843 882.661 702.032 885.73 708.084 888.817C718.399 894.08 719.447 895.815 714.991 900.271C712.844 902.417 714.211 903.912 720.857 906.688C732.061 911.371 743.845 911.295 750.692 906.496C754.842 903.591 758.778 903.095 767.266 904.409C777.293 905.963 777.866 906.377 773.048 908.585C765.954 911.834 766.305 915.936 774.579 926.492C778.363 931.317 781.995 938.473 782.648 942.395C783.302 946.316 785.553 957.908 787.651 968.154C789.752 978.401 791.468 993.177 791.468 1000.99C791.468 1008.8 792.555 1017.23 793.881 1019.71C796.502 1024.61 803.352 1023.62 803.352 1018.34C803.352 1010.5 809.442 1012.68 820.189 1024.37C829.849 1034.88 832.558 1036.59 837.129 1035.08C853.405 1029.68 867.765 1036.91 870.173 1051.71C870.977 1056.64 873.465 1061.71 875.699 1062.96C877.936 1064.21 881.777 1069.93 884.237 1075.67C888.201 1084.91 889.782 1086.27 898.129 1087.61C907.004 1089.03 911.049 1091.05 924.994 1101.01C930.372 1104.86 931.984 1104.89 948.391 1101.47C967.258 1097.53 973.047 1094.45 971.098 1089.37C970.238 1087.13 972.147 1086.15 977.525 1086.05C981.735 1085.97 994.802 1082.89 1006.57 1079.21C1025.23 1073.36 1028.55 1072.93 1032.65 1075.78C1035.22 1077.59 1041.73 1079.06 1047.1 1079.06C1055.72 1079.06 1057.55 1080.08 1062.62 1087.78C1068.94 1097.37 1070.12 1098.14 1087.38 1103.74C1104.89 1109.44 1113.36 1108.72 1122.21 1100.81C1129.72 1094.1 1129.76 1093.94 1126.77 1083.26C1123.54 1071.7 1124.2 1069.52 1139.32 1042.13C1144.53 1032.68 1144.69 1032.6 1149.27 1037C1155.91 1043.38 1175.37 1052.91 1181.78 1052.92C1190.51 1052.94 1201.62 1061.21 1207.7 1072.2C1210.81 1077.82 1217.94 1085.64 1223.56 1089.59L1233.78 1096.76L1248.52 1091.69C1256.63 1088.89 1265.93 1086.03 1269.2 1085.32C1277.9 1083.44 1291.57 1087.17 1297.44 1093.03C1300.96 1096.56 1304.26 1097.72 1308.08 1096.76C1312.02 1095.77 1315.88 1097.28 1321.52 1102.03C1328.7 1108.08 1331.65 1108.82 1353.39 1110.08C1376.6 1111.43 1377.67 1111.27 1387.63 1104.92C1393.29 1101.32 1401.09 1097.67 1404.97 1096.82C1409.61 1095.8 1413.96 1092.2 1417.72 1086.23C1428.62 1068.97 1442.57 1062.55 1455.65 1068.78C1462.68 1072.13 1465.21 1072.38 1468.94 1070.05C1475.18 1066.15 1481.52 1066.43 1496.89 1071.28L1509.9 1075.38L1518.77 1065.39C1528.34 1054.6 1530.57 1046.68 1530.64 1023.21C1530.66 1015.26 1532.25 1005.93 1534.23 1002.14C1539.82 991.416 1538.8 978.65 1531.84 972.105C1523.33 964.114 1524.43 959.08 1536.5 950.775C1542.34 946.761 1548.08 941.748 1549.26 939.635C1552.03 934.684 1568.55 932.02 1597.57 931.842C1620.3 931.702 1620.61 931.778 1630.84 939.975C1636.52 944.524 1642.77 950.043 1644.73 952.237C1646.69 954.431 1651.78 960.199 1656.03 965.055L1663.76 973.885L1656.62 975.311C1647.8 977.077 1647.4 980.573 1655.79 982.679C1659.26 983.549 1666.97 987.611 1672.91 991.701C1687.82 1001.96 1698.42 1005.34 1706.32 1002.35C1710.11 1000.92 1720.04 1000.66 1731.19 1001.71C1745.95 1003.09 1750.55 1004.47 1753.68 1008.46C1762.54 1019.72 1772.82 1029.15 1776.24 1029.15C1782.01 1029.15 1796.53 1018.92 1798.17 1013.7C1799 1011.08 1804.12 1004.64 1809.55 999.371C1814.98 994.106 1821.25 986.351 1823.47 982.139C1828.24 973.126 1832.5 972.166 1832.5 980.102C1832.5 983.195 1834.78 988.618 1837.56 992.155C1841.32 996.932 1841.93 999.278 1839.94 1001.27C1835.79 1005.42 1836.7 1011.87 1843.6 1027.26C1849.28 1039.9 1849.65 1042.27 1847.04 1049.46C1844.96 1055.23 1844.84 1058.84 1846.63 1062.19C1852.59 1073.31 1846.87 1083.81 1834.87 1083.81C1830.08 1083.81 1826.62 1085.85 1823.15 1090.72C1816.72 1099.75 1816.95 1105.48 1824.19 1116.14C1827.47 1120.97 1832.3 1131.89 1834.93 1140.41L1839.72 1155.9L1834.33 1161.66L1828.93 1167.42L1835.99 1166.61C1843.19 1165.8 1843.87 1164.56 1847.76 1145.49C1848.95 1139.63 1849.48 1139.46 1864.14 1140.4C1878.41 1141.31 1879.79 1140.92 1887.89 1133.82C1899.75 1123.4 1909.4 1102.76 1911.27 1083.81C1912.1 1075.32 1913.93 1061.41 1915.33 1052.92C1916.72 1044.42 1918.18 1009.12 1918.56 974.481L1919.25 911.497L1910.53 894.859C1905.73 885.708 1899.02 874.492 1895.6 869.934C1888.66 860.669 1882.41 842.045 1882.41 830.624C1882.41 824.982 1879.36 819.605 1870.2 809.072C1855.97 792.722 1854.78 791.909 1838.71 787.631C1822.65 783.355 1819.79 783.5 1813.15 788.923C1808.65 792.603 1808.13 794.105 1810.51 796.529C1814.91 801 1814.12 807.586 1808.99 809.214C1806.51 809.998 1803.94 812.744 1803.27 815.315C1801.52 821.989 1797.15 821.089 1794.23 813.454L1791.73 806.918L1787.46 812.152L1783.2 817.383L1777.79 811.629C1772.89 806.407 1771.1 806.01 1758.47 807.329C1744.96 808.741 1744.56 808.618 1744.63 803.096C1744.67 799.971 1746.28 795.334 1748.2 792.798C1750.12 790.259 1751.7 785.446 1751.71 782.102C1751.73 778.756 1753.33 770.77 1755.28 764.352C1757.23 757.935 1758.84 745.635 1758.88 737.019C1758.91 728.404 1760.07 717.076 1761.47 711.847C1765.19 697.876 1767.91 678.959 1769.68 654.804C1770.92 637.729 1772.41 631.669 1777.05 624.773C1787.27 609.56 1804.21 596.456 1811.26 598.301C1814.73 599.209 1815.86 598.277 1815.86 594.503C1815.86 591.273 1819.15 587.425 1825.16 583.629C1835.58 577.052 1842.01 569.097 1842.01 562.768C1842.01 556.248 1850.35 549.178 1856.23 550.715C1860.02 551.709 1861.64 550.765 1862.63 546.974C1863.58 543.312 1865.81 541.907 1870.67 541.907C1874.36 541.907 1878.08 540.776 1878.93 539.39C1879.82 537.947 1883.43 537.522 1887.39 538.392C1891.49 539.29 1894.3 538.922 1894.3 537.486C1894.3 536.155 1898.57 530.123 1903.8 524.081C1909.03 518.039 1913.31 512.093 1913.31 510.864C1913.31 507.37 1908.17 508.242 1903.42 512.547C1899.32 516.25 1898.84 515.895 1894.52 506.01C1892.01 500.263 1888.71 487.201 1887.18 476.985C1885.66 466.767 1882.88 454.727 1881 450.225C1877.15 441.027 1878.53 431.484 1884.75 424.256C1886.99 421.642 1889.49 417.63 1890.3 415.343C1891.11 413.054 1893.37 411.184 1895.33 411.184C1897.29 411.184 1900.37 408.377 1902.16 404.947L1905.43 398.711L1914.2 407.483C1922.15 415.431 1931.88 418.302 1930.65 412.339C1930.39 411.051 1929.44 401.655 1928.55 391.461C1927.26 376.664 1925.57 370.914 1920.17 362.94C1916.44 357.447 1913.38 351.76 1913.35 350.303C1913.3 346.999 1922.48 335.127 1925.08 335.127C1926.14 335.127 1928.15 339.671 1929.56 345.228C1931.34 352.29 1935.72 358.88 1944.1 367.123C1956.53 379.352 1957.92 383.188 1953.44 393.006C1951.32 397.66 1951.84 402.204 1956.04 415.778C1959.95 428.392 1960.62 433.549 1958.67 435.902C1956.72 438.244 1956.97 440.846 1959.62 445.921C1961.58 449.693 1963.2 454.299 1963.21 456.155C1963.21 458.014 1965.09 461.598 1967.37 464.122C1972.72 470.028 1974.41 502.212 1969.84 510.89C1967.12 516.04 1967.38 517.324 1972.07 522.018C1974.99 524.934 1978.09 531.77 1978.96 537.206C1979.94 543.357 1983.94 551.393 1989.54 558.487C2002.32 574.65 2033.96 601.906 2057.99 617.46C2069.27 624.757 2083.96 635.343 2090.64 640.983C2103.98 652.259 2111.76 654.006 2114.21 646.279C2117.52 635.873 2106.7 604.371 2096.58 594.95C2091.73 590.429 2091.67 589.763 2095.1 580.026C2099.81 566.671 2099.82 566.711 2091.8 559.562C2082.57 551.34 2080.6 539.887 2085.89 525.179C2090.48 512.404 2088.27 506.255 2079.08 506.255C2071.85 506.255 2058.29 490.649 2058.29 482.319C2058.29 477.651 2059.49 475.357 2061.93 475.357C2066.88 475.357 2068.99 468.959 2065.45 464.695C2063.87 462.784 2058.67 460.588 2053.9 459.811C2031.85 456.224 2032.15 456.374 2032.15 449.025C2032.15 443.563 2031.09 442.082 2027.17 442.082C2024.2 442.082 2021.7 443.991 2020.95 446.836C2018.06 457.902 2009.77 450.425 1991.97 420.691C1985.31 409.58 1979.87 398.673 1979.86 396.453C1979.86 394.23 1982.47 389.596 1985.67 386.149C1990.78 380.628 1991.3 378.43 1990.03 367.608C1988.71 356.385 1988.92 355.608 1992.51 358.569C1997.17 362.41 1997.77 361.238 1999.78 344.287C2001.93 326.133 2007.83 316.443 2018.46 313.581C2025.4 311.713 2027.35 310.128 2026.48 307.076C2018.71 280.005 2010.95 241.529 2009.61 223.418C2008.59 209.657 2006.49 198.567 2004.23 195.018C2001.53 190.787 2001.29 188.941 2003.35 188.254C2008.78 186.445 2020.02 175.635 2021.58 170.727C2022.55 167.668 2021.92 165.002 2019.92 163.737C2015.59 160.992 1989.37 161.047 1989.37 163.801C1989.37 164.999 1985.18 163.685 1980.05 160.88C1971.2 156.032 1970.52 155.982 1966.2 159.889C1963.7 162.149 1959.5 163.999 1956.87 163.999C1954.23 163.999 1950.12 166.164 1947.72 168.809C1944.39 172.493 1942.91 172.909 1941.4 170.592C1940.09 168.567 1942.38 165.052 1948.31 159.979C1955.74 153.619 1957.17 150.895 1957.17 143.088C1957.17 130.329 1946.48 114.086 1938.08 114.086C1929.5 114.086 1922.82 109.946 1922.82 104.636C1922.82 97.9668 1926.06 97.0613 1934.63 101.335C1945.59 106.801 1952.58 103.113 1954.55 90.8317C1956.43 79.0714 1960.41 75.6156 1969.92 77.5146C1976.02 78.7363 1978.43 77.7927 1983.92 72.0314C2003.33 51.6695 2009.01 40.8219 1998.87 43.472C1995.87 44.2563 1994.12 43.5433 1994.12 41.5325C1994.12 38.1575 1991.21 36.9786 1976.89 34.5638C1967.31 32.9476 1965.93 30.8037 1971.5 26.1809C1974.61 23.5997 1974.61 22.6728 1971.5 18.2306C1969.56 15.4664 1967.98 10.2327 1967.98 6.60095C1967.98 -0.00412315 1963.95 -2.10282 1959.54 2.20866ZM1780.8 42.0079C1774.55 46.374 1773.93 54.3339 1779.08 64.2926C1784.81 75.3755 1789.14 73.1913 1791 58.2698C1792.63 45.276 1791.53 37.9174 1788.01 38.1527C1786.99 38.2217 1783.74 39.9567 1780.8 42.0079ZM892.546 73.5763C890.587 76.7445 902.352 84.0127 906.723 82.3347C912.176 80.2432 911.013 76.2074 904.211 73.6215C896.577 70.7194 894.317 70.7099 892.546 73.5763ZM898.447 87.6849C890.466 89.9072 895.132 92.5288 910.25 94.3208C922.798 95.8063 926.386 92.7308 917.595 88.0248C912.504 85.301 907.344 85.2106 898.447 87.6849ZM945.769 107.916C949.491 112.401 956.293 113.014 954.884 108.738C954.347 107.106 951.366 105.397 948.265 104.945C943.338 104.227 943.022 104.603 945.769 107.916ZM956.327 124.782C953.018 133.4 961.38 139.107 967.141 132.164C969.264 129.607 969.021 127.981 966.074 125.034C961.301 120.261 958.093 120.178 956.327 124.782ZM975.659 130.74C973.798 133.749 980.415 136.445 985.176 134.617C987.137 133.866 988.741 132.147 988.741 130.797C988.741 127.641 977.606 127.591 975.659 130.74ZM1141.53 173.781C1140.07 175.241 1136.42 177.66 1133.41 179.16C1125.94 182.885 1122.15 196.23 1127.16 201.233C1130.27 204.342 1132.23 204.48 1139.44 202.101C1150.93 198.312 1154.08 192.109 1150.54 180.287C1147.66 170.673 1145.9 169.408 1141.53 173.781ZM1764.17 177.456C1762.53 178.117 1761.2 179.709 1761.2 181C1761.2 184.344 1771.32 182.421 1772.5 178.853C1773.48 175.866 1769.69 175.229 1764.17 177.456ZM1141.15 207.299C1124.64 217.754 1127.36 233.947 1146.88 241.403C1160.83 246.73 1164.12 243.906 1165.1 225.795C1165.79 213.101 1165.62 212.701 1159.28 211.972C1155.68 211.558 1152.74 209.749 1152.74 207.952C1152.74 202.36 1149.26 202.163 1141.15 207.299ZM1116.1 206.462C1115.4 207.596 1116.96 210.458 1119.58 212.825C1123.36 216.25 1124.92 216.523 1127.25 214.17C1129.55 211.831 1129.2 210.503 1125.55 207.81C1120.24 203.893 1117.89 203.558 1116.1 206.462ZM1529.7 213.835C1515.12 217.626 1507.65 224.186 1513.66 227.934C1518.64 231.041 1533.14 226.765 1539.62 220.276C1548.28 211.622 1545.41 209.759 1529.7 213.835ZM1177.47 232.331C1176.78 234.62 1173.08 243.176 1169.25 251.345C1161.12 268.698 1161.48 268.898 1186.01 260.679C1196.64 257.119 1201.72 254.14 1202.27 251.134C1203.15 246.402 1194.14 235.302 1189.42 235.302C1187.83 235.302 1185.91 233.698 1185.15 231.737C1183.3 226.903 1179.02 227.233 1177.47 232.331ZM1474.2 229.871C1466.25 230.879 1464.35 234.606 1469.29 239.54C1473.61 243.868 1469.59 245.907 1462.81 242.817C1448.4 236.253 1441.9 243.402 1447.32 259.845C1450.89 270.633 1457.28 276.078 1466.91 276.527C1473.66 276.843 1474.77 276.126 1474.61 271.548C1474.5 268.608 1475.48 266.2 1476.77 266.2C1478.07 266.2 1483.93 263.384 1489.8 259.945L1500.48 253.686L1494.77 250.521L1489.05 247.355L1495.51 247.269C1499.43 247.219 1502.94 245.353 1504.46 242.513C1506.5 238.694 1505.98 237.218 1501.57 234.427C1495.04 230.292 1484.6 228.554 1474.2 229.871ZM864.626 238.993C863.727 239.892 858.13 241.536 852.188 242.646C846.246 243.756 838.175 246.837 834.25 249.491C830.329 252.144 823.954 256.455 820.085 259.07C816.218 261.684 811.405 263.823 809.389 263.823C807.376 263.823 805.729 265.428 805.729 267.389C805.729 269.349 804.66 270.954 803.352 270.954C799.252 270.954 800.764 279.532 805.639 283.945C810.133 288.012 810.573 287.938 817.706 281.937C821.777 278.51 826.683 275.707 828.608 275.707C830.533 275.707 835.139 274.141 838.84 272.228C847.924 267.529 894.623 260.788 905.428 262.614C915.52 264.318 943.24 260.363 946.91 256.693C948.669 254.934 948.65 252.964 946.848 250.09C944.83 246.879 939.207 245.636 920.756 244.32C895.317 242.504 887.502 241.608 874.618 239.031C870.021 238.111 865.527 238.095 864.626 238.993ZM92.0029 241.876C89.55 242.418 87.1519 245.779 86.3485 249.805C85.0413 256.341 84.4138 256.693 76.6322 255.234C64.3918 252.938 67.6789 259.655 80.0976 262.314C87.689 263.938 90.4865 266.022 93.467 272.275C98.5247 282.88 105.187 286.41 109.902 280.979C117.437 272.301 117.705 254.316 110.302 254.316C108.396 254.316 105.876 251.787 104.702 248.698C102.349 242.511 98.4915 240.438 92.0029 241.876ZM769.058 284.026C762.417 288.749 754.49 292.345 750.728 292.345C746.459 292.345 743.163 294.094 741.468 297.262C739.255 301.396 739.849 303.116 745.202 308.077C751.508 313.921 752.225 320.194 747.764 330.487C746.053 334.433 762.134 357.3 765.262 355.368C766.217 354.778 767.648 347.339 768.442 338.835C770.187 320.16 773.5 313.408 787.713 299.575C800.008 287.606 800.826 284.668 793.315 279.408C785.676 274.056 782.132 274.731 769.058 284.026ZM1491.33 282.997C1490.47 284.39 1490.36 286.127 1491.09 286.854C1493.04 288.811 1499.75 285.759 1499.75 282.911C1499.75 279.686 1493.34 279.75 1491.33 282.997ZM1504.5 287.591C1500.42 295.218 1505.6 302.679 1513.61 300.711C1521.45 298.786 1530.65 292.998 1530.65 289.997C1530.65 282.365 1508.4 280.318 1504.5 287.591ZM666.882 331.124C661.684 334.927 662.761 343.082 668.613 344.209C674.514 345.345 679.76 340.377 679.76 333.649C679.76 327.205 673.832 326.043 666.882 331.124ZM915.655 348.694C911.51 350.215 911.943 355.724 916.34 357.412C918.457 358.225 920.589 357.264 921.409 355.13C923.083 350.766 919.855 347.153 915.655 348.694ZM1270.02 367.316C1269.25 369.334 1269.23 371.603 1269.99 372.364C1272.39 374.762 1278.71 371.083 1278.71 367.287C1278.71 362.543 1271.84 362.567 1270.02 367.316ZM771.014 376.521C768.979 381.821 770.973 392.895 774.149 393.938C777.733 395.115 780.557 384.714 778.451 378.08C776.649 372.404 772.896 371.618 771.014 376.521ZM1881.62 545.869C1878.95 548.533 1879.85 551.414 1883.35 551.414C1885.17 551.414 1887.27 549.81 1888.03 547.849C1889.4 544.274 1884.67 542.815 1881.62 545.869ZM2111.81 665.452C2108.17 669.476 2107.91 671.27 2110.2 676.316C2111.72 679.641 2112.96 684.984 2112.96 688.191C2112.96 695.958 2116.5 695.592 2119.79 687.485C2122.77 680.134 2121.85 662.519 2118.42 661.376C2117.19 660.967 2114.21 662.8 2111.81 665.452ZM2118.13 712.244C2119.29 718.207 2124.84 719.025 2124.84 713.233C2124.84 710.314 2123.31 708.282 2121.1 708.282C2118.89 708.282 2117.68 709.898 2118.13 712.244ZM2120.09 734.136C2120.09 735.282 2121.74 737.59 2123.75 739.263C2127.94 742.733 2133.64 739.044 2130.91 734.633C2129.01 731.555 2120.09 731.144 2120.09 734.136ZM1857.13 745.119C1856.3 747.268 1858.69 751.423 1863.14 755.58C1868.33 760.426 1870.53 764.668 1870.53 769.843C1870.53 773.895 1869.46 777.208 1868.15 777.208C1864.38 777.208 1865.37 781.888 1870.53 788.443C1873.14 791.769 1875.28 796.401 1875.28 798.737C1875.28 801.076 1877.95 806.167 1881.22 810.051C1884.49 813.934 1887.16 818.198 1887.16 819.527C1887.16 823.568 1901.65 834.415 1909 835.886C1914.08 836.901 1917.22 839.868 1920.83 847.05C1923.54 852.429 1930.82 864.317 1937.01 873.468C1943.2 882.619 1950.54 894.579 1953.33 900.045C1956.12 905.512 1963.77 914.603 1970.32 920.248C1978.86 927.599 1983.3 933.689 1985.96 941.703C1988.01 947.861 1992.17 955.291 1995.21 958.217C1998.25 961.143 2000.2 964.96 1999.53 966.697C1997.83 971.123 2009.22 986.812 2017.83 991.898C2024.3 995.718 2025.02 995.756 2025.02 992.286C2025.02 990.166 2023.95 986.439 2022.65 984.005C2020.8 980.547 2021.63 977.98 2026.43 972.276C2029.8 968.261 2033.76 964.974 2035.21 964.974C2037.03 964.974 2036.97 965.861 2035 967.826C2030.57 972.257 2031.62 974.888 2037.5 974.053C2049.8 972.304 2042.78 950.713 2029.91 950.713C2026.12 950.713 2019.46 948.928 2015.11 946.747C2010.76 944.567 2005.59 942.079 2003.63 941.221C1997.29 938.445 1985.57 918.563 1979.92 900.984C1973.11 879.797 1974.73 877.264 1996.4 875.298L2011.18 873.958L1997.94 866.854C1990.66 862.946 1975.86 852.327 1965.05 843.252C1954.24 834.177 1942.99 825.595 1940.05 824.178C1937.11 822.762 1934.7 820.751 1934.7 819.71C1934.7 818.667 1930.04 815.085 1924.35 811.75C1909.98 803.324 1905.31 797.646 1907.05 790.711C1908.61 784.491 1904.03 778.924 1895.12 776.215C1892.32 775.362 1889.4 772.21 1888.65 769.213C1887.89 766.216 1884.55 762.518 1881.21 760.999C1877.87 759.478 1872.93 754.482 1870.22 749.894C1865.06 741.145 1859.44 739.097 1857.13 745.119ZM1777.14 781.071C1775.29 782.925 1777.84 789.092 1780.46 789.092C1783.18 789.092 1783.24 782.646 1780.54 780.978C1779.42 780.284 1777.89 780.324 1777.14 781.071ZM2135.15 799.947C2134.36 801.996 2134.93 804.884 2136.41 806.364C2138.42 808.37 2139.1 807.42 2139.1 802.64C2139.1 795.488 2137.32 794.278 2135.15 799.947ZM2126.29 847.518C2125.49 849.586 2124.88 855.2 2124.92 859.996C2124.99 868.177 2125.21 868.429 2128.48 864.101C2130.4 861.563 2131.97 855.949 2131.97 851.623C2131.97 843.392 2128.76 841.073 2126.29 847.518ZM2114.54 878.619C2113.67 879.488 2112.96 882.11 2112.96 884.442C2112.96 886.773 2111.13 889.706 2108.89 890.959C2103.92 893.742 2101.18 925.629 2105.55 929.993C2109.9 934.349 2113.54 928.483 2113.39 917.351C2113.31 911.863 2115.37 901.982 2117.97 895.396C2122.49 883.924 2122.57 877.033 2118.18 877.033C2117.05 877.033 2115.41 877.746 2114.54 878.619ZM2095.03 942.214C2090.85 948.608 2091.11 965.255 2095.42 966.669C2098.09 967.544 2103.45 950.614 2103.45 941.342C2103.45 934.772 2099.65 935.167 2095.03 942.214ZM1991.74 969.728C1991.74 974.165 1992.38 974.797 1994.6 972.58C1996.81 970.362 1996.81 969.093 1994.6 966.876C1992.38 964.658 1991.74 965.29 1991.74 969.728Z" fill="var(--fill-0, white)"/>
</g>
<defs>
<clipPath id="clip0_4071_164">
<rect width="2139.1" height="1167" fill="white"/>
</clipPath>
</defs>
</svg>
