<svg preserveAspectRatio="xMidYMid meet" width="100%" height="100%" overflow="visible" style="display: block;" viewBox="0 0 1286 1301" fill="none" xmlns="http://www.w3.org/2000/svg">
<g id="Group 1000002344">
<path id="Ellipse 69" opacity="0.18" d="M643 0.500107C799.552 0.398321 911.398 73.1069 984.129 190.714C1056.88 308.348 1090.5 470.92 1090.5 650.5C1090.5 830.08 1056.88 992.551 984.129 1110.13C911.398 1227.69 799.553 1300.4 643 1300.5C486.448 1300.6 374.603 1227.89 301.871 1110.29C229.123 992.652 195.5 830.08 195.5 650.5C195.5 470.92 229.123 308.45 301.871 190.866C374.602 73.3104 486.448 0.601989 643 0.500107Z" stroke="var(--stroke-0, white)"/>
<path id="Ellipse 70" opacity="0.18" d="M0.500106 650.5C0.399544 519.705 72.2247 426.229 188.486 365.425C304.771 304.608 465.481 276.5 643 276.5C820.519 276.5 981.128 304.608 1097.36 365.425C1213.57 426.229 1285.4 519.704 1285.5 650.5C1285.6 781.295 1213.78 874.771 1097.51 935.575C981.229 996.392 820.519 1024.5 643 1024.5C465.481 1024.5 304.872 996.392 188.638 935.575C72.4265 874.771 0.6008 781.296 0.500106 650.5Z" stroke="var(--stroke-0, white)"/>
</g>
</svg>
