<svg preserveAspectRatio="none" width="100%" height="100%" overflow="visible" style="display: block;" viewBox="0 0 16.3975 11.1429" fill="none" xmlns="http://www.w3.org/2000/svg">
<g id="Layer 57">
<path id="Vector" d="M15.2559 0.165314L5.85094 9.57031C5.72213 9.69836 5.54788 9.77023 5.36625 9.77023C5.18462 9.77023 5.01038 9.69836 4.88156 9.57031L1.13469 5.82344C1.00317 5.71081 0.833992 5.65196 0.660965 5.65864C0.487938 5.66532 0.323805 5.73705 0.201365 5.85949C0.0789246 5.98193 0.00719602 6.14606 0.000512725 6.31909C-0.00617057 6.49212 0.0526836 6.66129 0.165314 6.79281L3.91219 10.5397C4.29891 10.9259 4.82313 11.1429 5.36969 11.1429C5.91625 11.1429 6.44047 10.9259 6.82719 10.5397L16.2322 1.13469C16.3448 1.00317 16.4037 0.833993 16.397 0.660965C16.3903 0.487938 16.3186 0.323805 16.1961 0.201365C16.0737 0.0789246 15.9096 0.00719602 15.7365 0.000512725C15.5635 -0.00617057 15.3943 0.0526836 15.2628 0.165314H15.2559Z" fill="var(--fill-0, #523A25)"/>
</g>
</svg>
