<svg preserveAspectRatio="none" width="100%" height="100%" overflow="visible" style="display: block;" viewBox="0 0 28 28" fill="none" xmlns="http://www.w3.org/2000/svg">
<g id="Traced Image" clip-path="url(#clip0_4109_65)">
<path id="Vector" fill-rule="evenodd" clip-rule="evenodd" d="M13.7813 0.358685C11.4971 0.441263 9.24681 1.05387 7.36296 2.1059C6.32934 2.68315 5.45475 3.33601 4.59779 4.17005C3.49828 5.24015 2.60971 6.47699 1.92623 7.8888C0.626716 10.573 0.184513 13.7213 0.656931 16.9259C0.791025 17.8357 0.931873 18.4714 1.48982 20.6857C2.18564 23.4471 2.35602 24.3751 2.40603 25.6759C2.43307 26.3796 2.47885 26.6417 2.61545 26.8748C3.11377 27.7252 4.76847 27.7087 6.51128 26.836C7.21908 26.4817 7.89272 25.9971 8.18822 25.6298L8.29636 25.4954L8.8308 25.8412C10.1485 26.6939 10.888 27.0262 11.9595 27.2469C12.8308 27.4264 13.6217 27.494 14.6016 27.4725C16.1375 27.4388 17.5702 27.1454 19.0586 26.5596C21.6619 25.5351 23.9627 23.6943 25.4776 21.424C26.5532 19.812 27.3023 17.8459 27.5874 15.8868C27.7522 14.7544 27.768 13.4555 27.6304 12.3469C27.0524 7.68689 24.223 3.66342 20.1114 1.65456C18.16 0.701165 16.081 0.27556 13.7813 0.358685ZM13.4274 7.05511C12.1858 7.15899 11.0599 7.6138 10.0762 8.40874C9.75004 8.67233 9.16685 9.27452 8.92461 9.59786C8.03031 10.7916 7.52751 12.0717 7.32952 13.6588C7.0359 16.0126 7.33652 18.7444 8.05503 20.2515C8.32393 20.8155 8.57557 20.9236 9.06448 20.6852C9.29228 20.5742 9.50176 20.4186 9.95673 20.0228C10.1428 19.861 10.3358 19.6948 10.3856 19.6536L10.4763 19.5787L10.6317 19.6833C11.4514 20.235 12.54 20.6239 13.5599 20.7293C13.999 20.7746 14.798 20.7473 15.227 20.6722C16.6669 20.4201 17.9894 19.727 19.0317 18.6783C20.085 17.6186 20.7494 16.3334 20.9908 14.8888C21.0693 14.4186 21.0621 13.3441 20.9771 12.8699C20.7741 11.7374 20.3228 10.6963 19.6362 9.77661C19.3578 9.40361 18.6819 8.73334 18.293 8.44445C17.2961 7.70401 16.2308 7.27304 14.9634 7.09761C14.5814 7.0447 13.8075 7.02331 13.4274 7.05511Z" fill="var(--fill-0, #523A25)"/>
</g>
<defs>
<clipPath id="clip0_4109_65">
<rect width="28" height="28" fill="white"/>
</clipPath>
</defs>
</svg>
