<svg preserveAspectRatio="none" width="100%" height="100%" overflow="visible" style="display: block;" viewBox="0 0 1720 567.5" fill="none" xmlns="http://www.w3.org/2000/svg">
<g id="Group 1000002347">
<g id="Vector 108">
<path d="M0 0V107.5C0 35.9 36 6 54 0H0Z" fill="var(--fill-0, #D9D9D9)"/>
<path d="M0 0V107.5C0 35.9 36 6 54 0H0Z" fill="url(#paint0_linear_4047_62)"/>
</g>
<g id="Vector 110">
<path d="M0 567.5V460C0 531.6 36 561.5 54 567.5H0Z" fill="var(--fill-0, #D9D9D9)"/>
<path d="M0 567.5V460C0 531.6 36 561.5 54 567.5H0Z" fill="url(#paint1_linear_4047_62)"/>
</g>
<g id="Vector 109">
<path d="M1720 0V107.5C1720 35.9 1684 6 1666 0H1720Z" fill="var(--fill-0, #D9D9D9)"/>
<path d="M1720 0V107.5C1720 35.9 1684 6 1666 0H1720Z" fill="url(#paint2_linear_4047_62)"/>
</g>
<g id="Vector 111">
<path d="M1720 567.5V460C1720 531.6 1684 561.5 1666 567.5H1720Z" fill="var(--fill-0, #D9D9D9)"/>
<path d="M1720 567.5V460C1720 531.6 1684 561.5 1666 567.5H1720Z" fill="url(#paint3_linear_4047_62)"/>
</g>
</g>
<defs>
<linearGradient id="paint0_linear_4047_62" x1="27" y1="0" x2="27" y2="107.5" gradientUnits="userSpaceOnUse">
<stop stop-color="#F5C3A0"/>
<stop offset="1" stop-color="#F1A775"/>
</linearGradient>
<linearGradient id="paint1_linear_4047_62" x1="27" y1="567.5" x2="27" y2="460" gradientUnits="userSpaceOnUse">
<stop stop-color="#F5C3A0"/>
<stop offset="1" stop-color="#F1A775"/>
</linearGradient>
<linearGradient id="paint2_linear_4047_62" x1="1693" y1="0" x2="1693" y2="107.5" gradientUnits="userSpaceOnUse">
<stop stop-color="#F5C3A0"/>
<stop offset="1" stop-color="#F1A775"/>
</linearGradient>
<linearGradient id="paint3_linear_4047_62" x1="1693" y1="567.5" x2="1693" y2="460" gradientUnits="userSpaceOnUse">
<stop stop-color="#F5C3A0"/>
<stop offset="1" stop-color="#F1A775"/>
</linearGradient>
</defs>
</svg>
