<svg preserveAspectRatio="none" width="100%" height="100%" overflow="visible" style="display: block;" viewBox="0 0 188.8 56" fill="none" xmlns="http://www.w3.org/2000/svg">
<g id="logo" opacity="0.76" clip-path="url(#clip0_4003_9)">
<path id="Vector" fill-rule="evenodd" clip-rule="evenodd" d="M73.2882 21.4666H76.5611C78.4929 21.4666 79.7127 22.5705 79.7127 24.2667C79.7127 26.13 78.2198 27.1033 76.3933 27.1033H74.7465V29.7737H73.2882V21.4666ZM76.4419 25.7857C77.5442 25.7857 78.2319 25.169 78.2319 24.2788C78.2319 23.3057 77.532 22.7953 76.4419 22.7953H74.7465V25.7857H76.4419Z" fill="var(--fill-0, white)"/>
<path id="Vector_2" fill-rule="evenodd" clip-rule="evenodd" d="M81.6261 21.4666H87.7775V22.7721H83.0844V24.932H87.2454V26.2374H83.0844V28.4682H87.8381V29.7737H81.6261V21.4666Z" fill="var(--fill-0, white)"/>
<path id="Vector_3" fill-rule="evenodd" clip-rule="evenodd" d="M90.0234 21.4668H91.4817V25.6442L95.4282 21.4668H97.2186L93.7698 25.0386L97.3721 29.7738H95.6064L92.7744 26.036L91.4817 27.3648V29.7738H90.0234V21.4668Z" fill="var(--fill-0, white)"/>
<path id="Vector_4" fill-rule="evenodd" clip-rule="evenodd" d="M98.207 25.62C98.207 23.2827 100.007 21.3242 102.556 21.3242C105.105 21.3242 106.883 23.2584 106.883 25.62C106.883 27.9584 105.08 29.9169 102.532 29.9169C99.985 29.9169 98.207 27.9817 98.207 25.62ZM105.354 25.62C105.354 24.0068 104.18 22.665 102.532 22.665C100.885 22.665 99.7361 23.9825 99.7361 25.62C99.7361 27.2343 100.909 28.575 102.556 28.575C104.205 28.575 105.354 27.2586 105.354 25.62Z" fill="var(--fill-0, white)"/>
<path id="Vector_5" fill-rule="evenodd" clip-rule="evenodd" d="M109.072 21.4668H112.345C114.277 21.4668 115.497 22.5706 115.497 24.2669C115.497 26.1302 114.004 27.1035 112.177 27.1035H110.531V29.7738H109.072V21.4668ZM112.226 25.7859C113.328 25.7859 114.016 25.1692 114.016 24.279C114.016 23.3058 113.316 22.7955 112.226 22.7955H110.531V25.7859H112.226Z" fill="var(--fill-0, white)"/>
<path id="Vector_6" fill-rule="evenodd" clip-rule="evenodd" d="M116.145 28.4684H116.949C117.637 27.1035 118.005 25.4184 118.005 22.6416V21.4668H123.789V28.4684H124.82L124.618 31.5543H123.408V29.7738H117.566L117.423 31.5543H116.145V28.4684ZM122.33 28.4684V22.7843H119.403V23.7332C119.403 25.6563 119.071 27.3171 118.503 28.4684H122.33Z" fill="var(--fill-0, white)"/>
<path id="Vector_7" fill-rule="evenodd" clip-rule="evenodd" d="M126.662 21.4668H128.109V24.4573H130.018C131.877 24.4573 133.135 25.3829 133.135 27.056C133.135 28.7297 131.925 29.7738 130.006 29.7738H126.662V21.4668ZM129.982 28.4684C131.06 28.4684 131.689 27.9815 131.689 27.0447C131.689 26.1901 131.06 25.7272 129.958 25.7272H128.109V28.4684H129.982ZM134.119 21.4668H135.565V29.7738H134.119V21.4668Z" fill="var(--fill-0, white)"/>
<path id="Vector_8" fill-rule="evenodd" clip-rule="evenodd" d="M73.2881 33.3359H76.561C78.4928 33.3359 79.7126 34.4396 79.7126 36.1371C79.7126 37.9993 78.2197 38.9724 76.3932 38.9724H74.7464V41.6429H73.2881V33.3359ZM76.4418 37.6559C77.5441 37.6559 78.2318 37.0382 78.2318 36.1481C78.2318 35.175 77.5319 34.6645 76.4418 34.6645H74.7464V37.6559H76.4418Z" fill="var(--fill-0, white)"/>
<path id="Vector_9" fill-rule="evenodd" clip-rule="evenodd" d="M81.626 33.3359H83.0724V36.3265H84.9821C86.8408 36.3265 88.099 37.2518 88.099 38.925C88.099 40.5988 86.8893 41.6429 84.9696 41.6429H81.626V33.3359ZM84.9454 40.3377C86.0237 40.3377 86.6529 39.8506 86.6529 38.9137C86.6529 38.0589 86.0237 37.5964 84.9211 37.5964H83.0724V40.3377H84.9454ZM89.0821 33.3359H90.5286V41.6429H89.0821V33.3359Z" fill="var(--fill-0, white)"/>
<path id="Vector_10" fill-rule="evenodd" clip-rule="evenodd" d="M93.1338 33.3359H94.5921V36.7893H98.551V33.3359H100.009V41.6429H98.551V38.1422H94.5921V41.6429H93.1338V33.3359Z" fill="var(--fill-0, white)"/>
<path id="Vector_11" fill-rule="evenodd" clip-rule="evenodd" d="M102.615 33.3359H104.074V37.5131L108.02 33.3359H109.81L106.361 36.9078L109.964 41.6429H108.198L105.366 37.9051L104.074 39.2337V41.6429H102.615V33.3359Z" fill="var(--fill-0, white)"/>
<path id="Vector_12" fill-rule="evenodd" clip-rule="evenodd" d="M115.004 33.2765H116.356L120.007 41.6433H118.466L117.624 39.6382H113.702L112.848 41.6433H111.355L115.004 33.2765ZM117.092 38.344L115.658 35.0214L114.236 38.344H117.092Z" fill="var(--fill-0, white)"/>
<path id="Vector_13" fill-rule="evenodd" clip-rule="evenodd" d="M73.2881 45.2051H74.7464V48.6584H78.705V45.2051H80.1636V53.5123H78.705V50.0113H74.7464V53.5123H73.2881V45.2051Z" fill="var(--fill-0, white)"/>
<path id="Vector_14" fill-rule="evenodd" clip-rule="evenodd" d="M82.7627 45.2051H88.9141V46.5106H84.221V48.6706H88.382V49.976H84.221V52.2069H88.9747V53.5123H82.7627V45.2051Z" fill="var(--fill-0, white)"/>
<path id="Vector_15" fill-rule="evenodd" clip-rule="evenodd" d="M90.4961 52.2069H91.301C91.9887 50.8418 92.3569 49.1568 92.3569 46.3799V45.2051H98.1401V52.2069H99.1717L98.9696 55.2925H97.7599V53.5123H91.918L91.7745 55.2925H90.4961V52.2069ZM96.6818 52.2069V46.5227H93.7548V47.4714C93.7548 49.3947 93.4231 51.0555 92.8546 52.2069H96.6818Z" fill="var(--fill-0, white)"/>
<path id="Vector_16" fill-rule="evenodd" clip-rule="evenodd" d="M101.016 45.2051H104.737C105.686 45.2051 106.433 45.4664 106.906 45.9405C107.274 46.3091 107.464 46.7597 107.464 47.3411C107.464 48.3384 106.896 48.8723 106.279 49.192C107.25 49.5254 107.925 50.0824 107.925 51.2338C107.925 52.7174 106.706 53.5123 104.857 53.5123H101.016V45.2051ZM104.442 48.7061C105.379 48.7061 106.006 48.3384 106.006 47.5544C106.006 46.9026 105.484 46.4984 104.547 46.4984H102.45V48.7061H104.442ZM104.869 52.219C105.864 52.219 106.469 51.827 106.469 51.0555C106.469 50.3556 105.911 49.9405 104.762 49.9405H102.45V52.219H104.869Z" fill="var(--fill-0, white)"/>
<path id="Vector_17" fill-rule="evenodd" clip-rule="evenodd" d="M110.065 45.2051H111.499V51.2691L115.697 45.2051H117.058V53.5123H115.624V47.4596L111.441 53.5123H110.065V45.2051Z" fill="var(--fill-0, white)"/>
<path id="Vector_18" fill-rule="evenodd" clip-rule="evenodd" d="M124.376 53.5123V51.3046L123.074 49.8211L120.595 53.5123H118.842L122.113 48.7414L119.008 45.2051H120.749L124.376 49.5254V45.2051H125.823V49.5254L129.45 45.2051H131.191L128.074 48.7414L131.357 53.5123H129.603L127.127 49.8211L125.823 51.3046V53.5123H124.376Z" fill="var(--fill-0, white)"/>
<path id="Vector_19" fill-rule="evenodd" clip-rule="evenodd" d="M133.151 45.2051H134.586V51.2691L138.783 45.2051H140.144V53.5123H138.71V47.4596L134.527 53.5123H133.151V45.2051Z" fill="var(--fill-0, white)"/>
<path id="Vector_20" fill-rule="evenodd" clip-rule="evenodd" d="M142.75 45.2051H144.304L146.828 49.1334L149.352 45.2051H150.906V53.5123H149.447V47.5544L146.828 51.4709H146.781L144.184 47.5787V53.5123H142.75V45.2051Z" fill="var(--fill-0, white)"/>
<path id="Vector_21" fill-rule="evenodd" clip-rule="evenodd" d="M153.097 49.3575C153.097 47.02 154.897 45.0615 157.446 45.0615C159.994 45.0615 161.773 46.9957 161.773 49.3575C161.773 51.6956 159.97 53.6541 157.421 53.6541C154.875 53.6541 153.097 51.719 153.097 49.3575ZM160.243 49.3575C160.243 47.7442 159.07 46.4026 157.421 46.4026C155.775 46.4026 154.626 47.7199 154.626 49.3575C154.626 50.9717 155.799 52.3125 157.446 52.3125C159.094 52.3125 160.243 50.996 160.243 49.3575Z" fill="var(--fill-0, white)"/>
<path id="Vector_22" fill-rule="evenodd" clip-rule="evenodd" d="M163.642 49.3575C163.642 46.9957 165.408 45.0615 167.92 45.0615C169.449 45.0615 170.374 45.5963 171.167 46.3557L170.232 47.4354C169.567 46.8186 168.857 46.4026 167.908 46.4026C166.32 46.4026 165.171 47.7086 165.171 49.3575C165.171 50.9839 166.32 52.3125 167.908 52.3125C168.927 52.3125 169.579 51.8974 170.291 51.2331L171.227 52.1818C170.362 53.084 169.413 53.6541 167.861 53.6541C165.442 53.6541 163.642 51.7667 163.642 49.3575Z" fill="var(--fill-0, white)"/>
<path id="Vector_23" fill-rule="evenodd" clip-rule="evenodd" d="M175.439 46.558H172.808V45.2051H179.542V46.558H176.91V53.5123H175.439V46.558Z" fill="var(--fill-0, white)"/>
<path id="Vector_24" fill-rule="evenodd" clip-rule="evenodd" d="M181.481 45.2051H182.915V51.2691L187.113 45.2051H188.474V53.5123H187.04V47.4596L182.857 53.5123H181.481V45.2051Z" fill="var(--fill-0, white)"/>
<path id="Vector_25" fill-rule="evenodd" clip-rule="evenodd" d="M89.244 9.15453C89.244 1.68211 95.7416 0.548517 98.5804 4.09528C100.466 6.45142 100.915 13.4958 97.0185 15.6526C94.2581 17.1805 90.5674 15.7765 89.6109 12.0045C89.428 11.2835 89.244 9.97528 89.244 9.15453ZM87.5303 8.29652C87.5303 10.9564 87.6045 13.4527 89.4319 15.5084C91.6605 18.0155 95.1204 18.4959 97.9205 17.0921C98.4242 16.8396 98.6789 16.6608 99.1 16.3428C99.3347 16.1654 99.3865 16.1187 99.5948 15.8731L100.033 15.3463C102.482 12.1809 102.462 6.11578 100.185 3.23936C99.5516 2.43932 99.1231 1.99452 98.2217 1.4515C95.6312 -0.109187 91.4974 0.334386 89.4242 2.90004C88.405 4.1612 87.5303 6.06781 87.5303 8.29652Z" fill="var(--fill-0, white)"/>
<path id="Vector_26" fill-rule="evenodd" clip-rule="evenodd" d="M73.1509 5.61768H74.6838C74.7204 3.96168 76.3152 2.21934 78.1869 2.21934C79.697 2.21934 80.3572 2.14123 81.501 3.2858C82.9445 4.73042 82.5151 6.64118 81.4951 8.16286C80.9742 8.93972 80.4951 9.32242 79.9192 9.98331C79.8447 10.0688 79.8536 10.0602 79.7689 10.1617L79.5701 10.4012C79.4002 10.6003 79.3241 10.6751 79.1454 10.8531L75.8106 14.3104C75.51 14.6705 73.3698 16.7978 73.3698 17.1283V17.8957H84.3176C84.7644 17.8957 84.6461 17.5521 84.6461 16.6898C84.6461 16.1667 83.7586 16.3608 82.7847 16.3609H76.2163C76.4519 16.0086 76.7555 15.773 77.0662 15.4579C77.2568 15.2645 77.2991 15.2134 77.4805 14.996C78.3497 13.9548 79.1913 13.3337 80.048 12.3048C80.0625 12.2874 80.0829 12.262 80.0974 12.2446L82.3725 9.80906C84.0575 7.92103 84.9399 5.64159 83.6639 3.20272C81.6377 -0.66963 73.856 -0.423822 72.9742 4.67721C72.8937 5.14236 72.7002 5.61768 73.1509 5.61768Z" fill="var(--fill-0, white)"/>
<path id="Vector_27" fill-rule="evenodd" clip-rule="evenodd" d="M104.359 5.28808C104.359 5.76565 104.823 5.61697 105.892 5.61697C106.446 5.61697 106.113 4.53128 107.124 3.34304C108.323 1.93532 111.461 1.78298 112.875 3.1188C113.75 3.94488 113.884 4.84547 113.884 5.94585C113.884 7.44014 111.951 9.47125 110.955 10.468L107.288 14.3597C106.897 14.7512 104.907 16.8036 104.907 17.0182V17.8952H116.073V16.3604H107.753C107.88 15.8842 109.568 14.4615 110.32 13.5596C112.315 11.1705 115.745 8.95531 115.745 5.50737C115.745 2.59933 113.307 0.574121 110.381 0.574121C107.983 0.574121 105.966 1.25252 104.902 3.31012C104.713 3.67537 104.359 4.74259 104.359 5.28808Z" fill="var(--fill-0, white)"/>
<path id="Vector_28" fill-rule="evenodd" clip-rule="evenodd" d="M125.967 17.9419C124.913 17.9419 123.966 17.7443 123.123 17.353C122.281 16.9577 121.603 16.4202 121.093 15.7323C120.587 15.0485 120.309 14.2698 120.259 13.3924H122.415C122.5 14.1749 122.875 14.8193 123.549 15.3253C124.222 15.8351 125.027 16.0881 125.967 16.0881C126.721 16.0881 127.394 15.922 127.984 15.59C128.574 15.258 129.037 14.8034 129.374 14.2224C129.711 13.6413 129.88 12.9813 129.88 12.2461C129.88 11.495 129.707 10.8231 129.358 10.2301C129.008 9.63726 128.528 9.17086 127.917 8.82692C127.306 8.48704 126.607 8.31314 125.823 8.3052C125.263 8.30126 124.686 8.38034 124.092 8.5463C123.498 8.71228 123.014 8.92176 122.63 9.18271L120.782 8.94553L121.809 0.455078H131.211L131.063 2.07183H123.468L122.879 7.39607H122.988C123.363 7.11548 123.839 6.88218 124.408 6.6964C124.976 6.51062 125.566 6.41969 126.181 6.41969C127.31 6.41969 128.313 6.66873 129.193 7.17468C130.078 7.67673 130.773 8.36052 131.278 9.23412C131.784 10.1037 132.036 11.0957 132.036 12.2144C132.036 13.3133 131.775 14.2936 131.249 15.1552C130.727 16.0209 130.006 16.6968 129.092 17.1949C128.174 17.6928 127.133 17.9419 125.967 17.9419Z" fill="var(--fill-0, white)"/>
</g>
<defs>
<clipPath id="clip0_4003_9">
<rect width="188.8" height="56" fill="white"/>
</clipPath>
</defs>
</svg>
