<svg preserveAspectRatio="none" width="100%" height="100%" overflow="visible" style="display: block;" viewBox="0 0 10.259 14.7809" fill="none" xmlns="http://www.w3.org/2000/svg">
<g id="Group">
<g id="Vector">
<path fill-rule="evenodd" clip-rule="evenodd" d="M1.32103 1.5634C3.42309 -0.521134 6.83592 -0.521134 8.93797 1.5634C11.5648 4.16833 10.1519 9.8003 5.78415 14.1317L5.1295 14.7809L4.47486 14.1317C0.107087 9.8003 -1.30579 4.16833 1.32103 1.5634ZM3.62803 5.20167C3.62803 4.37976 4.30069 3.71271 5.1295 3.71271C5.95831 3.71271 6.63097 4.37976 6.63097 5.20167C6.63097 6.02357 5.95831 6.69062 5.1295 6.69062C4.30069 6.69062 3.62803 6.02357 3.62803 5.20167Z" fill="var(--fill-0, white)"/>
<path fill-rule="evenodd" clip-rule="evenodd" d="M1.32103 1.5634C3.42309 -0.521134 6.83592 -0.521134 8.93797 1.5634C11.5648 4.16833 10.1519 9.8003 5.78415 14.1317L5.1295 14.7809L4.47486 14.1317C0.107087 9.8003 -1.30579 4.16833 1.32103 1.5634ZM3.62803 5.20167C3.62803 4.37976 4.30069 3.71271 5.1295 3.71271C5.95831 3.71271 6.63097 4.37976 6.63097 5.20167C6.63097 6.02357 5.95831 6.69062 5.1295 6.69062C4.30069 6.69062 3.62803 6.02357 3.62803 5.20167Z" fill="url(#paint0_linear_4125_334)"/>
</g>
</g>
<defs>
<linearGradient id="paint0_linear_4125_334" x1="5.1295" y1="7.45058e-08" x2="5.1295" y2="14.7809" gradientUnits="userSpaceOnUse">
<stop stop-color="#F5C3A0"/>
<stop offset="1" stop-color="#F1A775"/>
</linearGradient>
</defs>
</svg>
