<svg preserveAspectRatio="none" width="100%" height="100%" overflow="visible" style="display: block;" viewBox="0 0 112 42.5046" fill="none" xmlns="http://www.w3.org/2000/svg">
<path id="Vector" fill-rule="evenodd" clip-rule="evenodd" d="M105.003 0.583714C105.398 3.01775 109.376 2.966 109.855 0.520744L109.957 0H109.132C108.397 0 108.29 0.0442232 108.153 0.404738C107.97 0.884784 107.658 1.03251 107.115 0.89616C106.87 0.834472 106.679 0.643639 106.617 0.398169C106.528 0.0402174 106.436 0 105.713 0H104.908L105.003 0.583714ZM17.3047 3.02512C15.8627 3.497 14.5187 4.67756 13.9084 6.00858C13.3565 7.2119 13.3796 9.35721 13.9574 10.5751C14.4748 11.6655 15.3065 12.528 16.3935 13.1011C17.1535 13.5018 17.3754 13.5393 18.9871 13.5387C20.538 13.5381 20.8458 13.4903 21.5508 13.1418C22.573 12.6366 23.5331 11.6759 24.0363 10.6552C24.3758 9.96656 24.4314 9.62912 24.433 8.25179C24.4344 6.81165 24.39 6.5649 23.9941 5.81359C23.4316 4.74598 22.6411 3.95878 21.5856 3.41464C20.8802 3.05124 20.5117 2.97689 19.2275 2.93892C18.3903 2.91424 17.525 2.95302 17.3047 3.02512ZM29.3219 3.03393C27.891 3.47072 26.6207 4.56941 25.9752 5.92847C25.6201 6.67594 25.5565 7.0286 25.5565 8.25179C25.5565 9.47289 25.6208 9.831 25.9763 10.5889C26.4874 11.6791 27.2947 12.5129 28.4059 13.0987C29.171 13.502 29.3909 13.5393 31.0043 13.5393C32.9746 13.5393 33.55 13.3403 34.7719 12.2364C35.3327 11.7297 36.2117 10.2324 36.2117 9.7839C36.2117 9.67895 35.7522 9.61373 35.0142 9.61373C33.8501 9.61373 33.8097 9.62703 33.5723 10.0861C32.8788 11.4272 30.9256 11.9476 29.4821 11.176C27.3668 10.0452 27.2134 6.87815 29.2068 5.49649C30.5393 4.57309 32.5989 4.92175 33.4077 6.20775C33.7223 6.70798 33.7509 6.71744 34.972 6.72336L36.2161 6.72961L35.9664 6.12876C35.0586 3.94275 33.3984 2.87082 30.9625 2.8979C30.2805 2.90543 29.5422 2.96664 29.3219 3.03393ZM50.4471 3.10748C47.939 4.00332 46.6636 5.95218 46.8197 8.65012C46.9375 10.6825 47.9668 12.2598 49.7511 13.1418C50.4561 13.4903 50.7639 13.5381 52.3147 13.5387C53.9175 13.5393 54.1498 13.5006 54.8784 13.1122C55.9165 12.5587 56.9316 11.5025 57.3935 10.495C57.9211 9.34439 57.916 7.16271 57.3831 5.97622C56.879 4.85429 55.6047 3.66988 54.4277 3.22957C53.3565 2.82884 51.3957 2.76859 50.4471 3.10748ZM72.7439 3.02512C71.2985 3.49812 69.9523 4.68253 69.3527 6.00858C68.8034 7.22344 68.8244 9.36938 69.3972 10.5751C69.9011 11.636 70.7792 12.5403 71.8627 13.1147C72.5891 13.4998 72.828 13.5393 74.4263 13.5393C76.0275 13.5393 76.2632 13.5001 77.0001 13.1112C77.9482 12.6108 78.9001 11.6147 79.3258 10.6772C79.7967 9.63985 79.7748 9.61261 78.4721 9.62351L77.3104 9.63328L76.8298 10.2886C76.1265 11.2474 75.4423 11.568 74.2451 11.4996C73.5404 11.4594 73.1059 11.3362 72.7083 11.0638C70.7479 9.72045 70.7527 6.77977 72.7178 5.43336C73.1839 5.11387 73.479 5.04721 74.4271 5.04721C75.4403 5.04721 75.6423 5.10009 76.1722 5.50434C76.5019 5.75574 76.8503 6.13436 76.9466 6.34554C77.1094 6.70302 77.2082 6.72961 78.3692 6.72961H79.6171L79.4384 6.20887C79.0142 4.97254 78.1387 3.99819 76.8483 3.32667C76.3361 3.05989 75.8492 2.97337 74.6667 2.9386C73.8295 2.91408 72.9642 2.95302 72.7439 3.02512ZM0 8.25179V13.4592H1.1184H2.23696L2.28006 9.97425L2.32332 6.48927L3.69215 8.81259L5.06083 11.1359L5.93888 11.1829L6.81678 11.2298L8.25531 8.77942L9.69385 6.32904L9.73695 9.89413L9.78005 13.4592H10.8986H12.0172V8.25179V3.04435H10.6714H9.32548L7.66231 5.90764L5.99897 8.77093L4.32282 5.90764L2.64682 3.04435H1.32333H0V8.25179ZM37.6538 8.25179V13.4592H38.6953H39.7368V11.3763V9.29328H40.5877H41.4389L42.871 11.3755L44.3033 13.4575L45.6346 13.4584C46.6587 13.4591 46.9376 13.4129 46.8429 13.2589C46.7753 13.1489 45.9408 11.9417 44.9886 10.5764C44.0363 9.21108 43.2873 8.01577 43.3241 7.91995C43.3608 7.82414 44.07 6.778 44.8998 5.59535C45.7295 4.41254 46.4619 3.35487 46.5269 3.24464C46.6178 3.0913 46.3484 3.04435 45.3783 3.04435H44.111L42.685 5.12652L41.2589 7.2087L40.4979 7.2095L39.7368 7.2103V5.12732V3.04435H38.6953H37.6538V8.25179ZM59.2847 8.23977V13.4592L62.1288 13.4583C65.1327 13.4575 65.8042 13.3564 66.6655 12.776C67.4722 12.2322 67.8302 11.4985 67.8302 10.3883C67.8302 9.33413 67.5589 8.82573 66.6752 8.22423C66.2101 7.90746 66.1926 7.86708 66.4819 7.77527C67.0252 7.60286 67.4564 6.7059 67.4557 5.74933C67.4551 4.70336 67.0957 4.04578 66.2311 3.50821C65.6432 3.14273 65.4626 3.1219 62.4492 3.07239L59.2847 3.02031V8.23977ZM81.0758 8.25179V13.4592H82.1974H83.319V11.3763V9.29328H84.0932H84.8673L86.2964 11.3721L87.7253 13.4511L89.0567 13.4551C90.0792 13.4583 90.3604 13.4128 90.269 13.2589C90.2034 13.1489 89.4193 12.0096 88.5265 10.7275C87.6335 9.44549 86.8485 8.30851 86.782 8.201C86.7079 8.08098 87.2731 7.12586 88.2475 5.7253C89.1198 4.47103 89.8862 3.35487 89.9506 3.24464C90.04 3.09146 89.7698 3.04435 88.8014 3.04435H87.5353L86.1169 5.12732L84.6984 7.2103H84.0088H83.319V5.12732V3.04435H82.1974H81.0758V8.25179ZM91.3305 8.25179V13.4592L92.6524 13.4559L93.9742 13.4525L96.2575 9.65523L98.5408 5.85797V9.6586V13.4592H99.5823H100.624V8.24538V3.03137L99.3129 3.078L98.0022 3.12446L95.8279 6.72961L93.6538 10.3348L93.6107 6.68956L93.5676 3.04435H92.449H91.3305V8.25179ZM102.707 8.25179V13.4592H104.031H105.356L107.597 9.75153L109.837 6.04383L109.88 9.75153L109.923 13.4592H110.961H112V8.25179V3.04435H110.731H109.461L107.246 6.71231L105.03 10.3801L104.987 6.71231L104.944 3.04435H103.825H102.707V8.25179ZM17.4649 5.32761C16.3906 5.90187 15.8026 6.93631 15.8026 8.25179C15.8026 10.2728 17.1983 11.6208 19.1687 11.5025C21.0315 11.3908 22.1773 10.1527 22.1773 8.25179C22.1773 6.35083 21.0315 5.11274 19.1687 5.00106C18.3643 4.95284 18.0551 5.01212 17.4649 5.32761ZM50.8541 5.2648C48.9906 6.13597 48.4779 8.62031 49.7959 10.3939C50.6878 11.594 52.7935 11.8973 54.1234 11.0172C55.926 9.82427 55.9324 6.75797 54.1348 5.51219C53.274 4.91582 51.8334 4.80719 50.8541 5.2648ZM61.5279 6.0887V7.2103H62.9004C64.7386 7.2103 65.2059 6.96082 65.2108 5.97766C65.2146 5.17187 64.7695 4.9671 63.0143 4.9671H61.5279V6.0887ZM61.5279 10.2401V11.5365H63.1086C64.465 11.5365 64.7491 11.4894 65.1114 11.2043C65.4343 10.9505 65.5336 10.73 65.5336 10.2678C65.5336 9.26652 65.158 9.06271 63.194 8.99829L61.5279 8.94366V10.2401ZM23.1579 17.5601C22.3487 17.8564 21.6719 18.4909 21.2938 19.3076C20.7719 20.435 20.8264 20.5093 22.1744 20.5093C23.3122 20.5093 23.3628 20.4931 23.4618 20.0982C23.6987 19.155 25.8263 18.937 26.5527 19.7814C27.0146 20.3185 27.012 20.5429 26.5373 21.0949C26.2006 21.4861 26.0221 21.5457 25.0151 21.6025L23.8741 21.6671V22.6104V23.5536H25.0542C26.0055 23.5536 26.3162 23.6181 26.6565 23.8858C27.1731 24.2921 27.2339 25.126 26.7771 25.5394C26.3412 25.9338 25.3839 26.1569 24.6549 26.0338C23.918 25.9093 23.073 25.2615 23.073 24.8212C23.073 24.5467 22.9473 24.515 21.8586 24.515H20.6441L20.7538 25.0358C21.1989 27.1481 22.8373 28.1482 25.6209 28.0071C27.7539 27.8989 29.145 26.9672 29.3815 25.4881C29.5723 24.295 28.9112 22.856 28.0388 22.5652C27.8606 22.5057 27.9489 22.3454 28.3871 21.932C29.8043 20.5955 29.1234 18.2393 27.1229 17.5577C26.1937 17.2411 24.0258 17.2424 23.1579 17.5601ZM54.1574 17.4457C52.7169 17.9171 51.3631 19.1208 50.743 20.4811C50.4771 21.0647 50.4005 21.5492 50.3968 22.6724C50.3926 23.9331 50.4484 24.2293 50.8406 25.0282C51.7703 26.9212 53.6273 28.0401 55.8398 28.0401C57.9918 28.0401 59.7686 27.0181 60.6332 25.283C61.297 23.951 61.2539 23.8741 59.8455 23.8741C59.0432 23.8741 58.6438 23.9356 58.6438 24.0593C58.6438 24.4429 57.775 25.3623 57.1402 25.6506C55.9063 26.2109 54.4302 25.906 53.4867 24.8957C52.918 24.2869 52.6925 23.6511 52.6925 22.6546C52.6922 20.7487 54.0035 19.3877 55.8398 19.3877C56.8401 19.3877 57.518 19.7054 58.1882 20.4885L58.7547 21.1502H59.9117C61.0378 21.1502 61.0658 21.1406 60.9576 20.7897C60.5942 19.6117 59.5729 18.4207 58.4135 17.8229C57.7356 17.4731 57.3523 17.3972 56.0801 17.3595C55.2429 17.3348 54.3777 17.3736 54.1574 17.4457ZM0 22.6724V27.8798H2.77548C6.02653 27.8798 6.72577 27.7169 7.59293 26.7569C8.12457 26.1686 8.49037 25.2873 8.49037 24.5951C8.49037 23.9029 8.12457 23.0217 7.59293 22.4333C6.8211 21.579 5.93712 21.3104 3.89709 21.3104H2.2432V20.4292V19.5479H4.88698H7.53076V18.5064V17.4649H3.76538H0V22.6724ZM9.93419 22.6724V27.8798H11.2657H12.5972L14.8308 24.1784L17.0644 20.4768L17.1073 24.1784L17.1504 27.8798H18.269H19.3877V22.6724V17.4649H18.0399H16.6922L14.4748 21.1475L12.2575 24.8299L12.2146 21.1475L12.1715 17.4649H11.0529H9.93419V22.6724ZM31.0844 22.6724V27.8798H32.206H33.3276V25.7969V23.7139H35.4907H37.6538V25.7969V27.8798H38.7754H39.897V22.6724V17.4649H38.7754H37.6538V19.4678V21.4707H35.4907H33.3276V19.4678V17.4649H32.206H31.0844V22.6724ZM41.98 22.6724V27.8798H45.8255H49.671V26.8383V25.7969H46.9471H44.2232V24.6752V23.5536H46.5465H48.8698V22.5923V21.6309H46.5465H44.2232V20.5894V19.5479H46.9471H49.671V18.5064V17.4649H45.8255H41.98V22.6724ZM2.08298 24.5951V25.7969H3.66363C5.02013 25.7969 5.30422 25.7497 5.66649 25.4647C6.21191 25.0358 6.24636 24.1938 5.73796 23.7201C5.43208 23.4351 5.17636 23.3934 3.7351 23.3934H2.08298V24.5951ZM0 37.093V42.3004H1.1216H2.2432V40.1373V37.9742L3.00429 37.9803L3.76538 37.9864L5.20744 40.1385L6.6495 42.2903L7.97139 42.2953C8.69851 42.2982 9.29328 42.2695 9.29328 42.2317C9.29328 42.1937 8.45992 40.9678 7.44151 39.5073C6.27729 37.8377 5.63509 36.7775 5.71216 36.6519C5.77946 36.542 6.49151 35.5147 7.29458 34.3691C8.09765 33.2235 8.8081 32.1961 8.87315 32.0858C8.964 31.9325 8.69578 31.8855 7.72992 31.8855H6.46828L5.10457 33.8484L3.74086 35.8112L2.99195 35.86L2.2432 35.9089V33.8972V31.8855H1.1216H0V37.093ZM11.8057 32.0057C11.767 32.0717 11.6847 33.3156 11.6225 34.7697C11.419 39.536 11.2751 40.0805 10.1641 40.2889L9.61373 40.3923V41.4483V42.5046L10.6453 42.4217C12.3796 42.2825 13.1117 41.5943 13.4458 39.7887C13.5244 39.3636 13.6404 37.88 13.7037 36.4921L13.8185 33.9685H15.4014H16.9843V38.1345V42.3004H18.1059H19.2275V37.093V31.8855H15.5517C13.5299 31.8855 11.8443 31.9397 11.8057 32.0057ZM20.3491 31.9669C20.3491 32.0118 21.1861 33.7213 22.209 35.7658L24.0691 39.4831L23.6423 39.8502C23.3532 40.0989 23.0111 40.2175 22.5833 40.2175H21.9514V41.2801V42.3426L23.1332 42.2668C24.5365 42.1767 25.2442 41.8072 25.755 40.8984C26.0654 40.3463 29.6423 32.1139 29.6423 31.9517C29.6423 31.9154 29.1089 31.8855 28.4571 31.8855H27.2719L26.2434 34.4559L25.2151 37.0265L23.9919 34.4559L22.7688 31.8855H21.559C20.8935 31.8855 20.3491 31.9222 20.3491 31.9669ZM30.4435 37.093V42.3004H33.1382C35.094 42.3004 36.0602 42.233 36.661 42.0546C38.2043 41.5962 39.1023 40.154 38.8752 38.498C38.7291 37.4317 38.1564 36.6516 37.1524 36.1513C36.3918 35.7722 36.1313 35.731 34.4979 35.731H32.6867V34.7697V33.8083H35.4106H38.1345V32.8469V31.8855H34.289H30.4435V37.093ZM32.6867 38.9356V40.2175H34.1212C34.9102 40.2175 35.7346 40.1361 35.953 40.0364C36.5296 39.7736 36.7796 39.0811 36.5048 38.507C36.221 37.9142 35.4886 37.6741 33.9285 37.6628L32.6867 37.6538V38.9356Z" fill="var(--fill-0, #523A25)"/>
</svg>
