<svg preserveAspectRatio="none" width="100%" height="100%" overflow="visible" style="display: block;" viewBox="0 0 1098 416.696" fill="none" xmlns="http://www.w3.org/2000/svg">
<path id="Vector" fill-rule="evenodd" clip-rule="evenodd" d="M1029.4 5.72248C1033.27 29.5847 1072.28 29.0774 1076.97 5.10515L1077.97 0H1069.88C1062.68 0 1061.63 0.433545 1060.28 3.96788C1058.5 8.67404 1055.44 10.1223 1050.11 8.78557C1047.71 8.18081 1045.83 6.30996 1045.23 3.90348C1044.35 0.394275 1043.45 0 1036.36 0H1028.47L1029.4 5.72248ZM169.648 29.657C155.511 34.283 142.335 45.8568 136.352 58.9056C130.942 70.7024 131.168 91.734 136.832 103.674C141.904 114.363 150.058 122.819 160.715 128.438C168.165 132.366 170.341 132.734 186.142 132.728C201.346 132.721 204.363 132.253 211.275 128.837C221.296 123.884 230.709 114.465 235.641 104.459C238.97 97.7079 239.515 94.3997 239.531 80.897C239.545 66.7785 239.11 64.3594 235.228 56.9939C229.713 46.5276 221.964 38.8101 211.616 33.4756C204.701 29.913 201.088 29.1842 188.498 28.8119C180.29 28.57 171.808 28.9501 169.648 29.657ZM287.459 29.7434C273.432 34.0254 260.978 44.7965 254.65 58.1202C251.169 65.448 250.545 68.9054 250.545 80.897C250.545 92.8682 251.175 96.3789 254.661 103.809C259.671 114.497 267.585 122.671 278.479 128.414C285.98 132.368 288.136 132.734 303.953 132.734C323.269 132.734 328.91 130.783 340.889 119.96C346.387 114.993 355.004 100.314 355.004 95.9171C355.004 94.8882 350.499 94.2489 343.264 94.2489C331.852 94.2489 331.456 94.3793 329.128 98.8797C322.33 112.027 303.182 117.129 289.03 109.564C268.292 98.4791 266.789 67.4304 286.331 53.8853C299.394 44.8326 319.586 48.2507 327.515 60.8581C330.599 65.7622 330.88 65.8549 342.851 65.913L355.047 65.9742L352.599 60.0837C343.699 38.6531 327.424 28.1443 303.543 28.4098C296.857 28.4836 289.619 29.0836 287.459 29.7434ZM494.562 30.4644C469.974 39.2468 457.47 58.3526 459 84.802C460.155 104.726 470.246 120.189 487.738 128.837C494.65 132.253 497.667 132.721 512.871 132.728C528.584 132.734 530.862 132.354 538.004 128.546C548.182 123.121 558.133 112.766 562.661 102.888C567.834 91.6084 567.784 70.2202 562.559 58.5883C557.618 47.5894 545.125 35.978 533.586 31.6614C523.085 27.7327 503.861 27.1421 494.562 30.4644ZM713.15 29.657C698.98 34.294 685.782 45.9055 679.904 58.9056C674.519 70.8155 674.725 91.8534 680.341 103.674C685.281 114.074 693.889 122.94 704.511 128.571C711.633 132.346 713.975 132.734 729.644 132.734C745.341 132.734 747.652 132.349 754.876 128.537C764.17 123.631 773.503 113.865 777.676 104.674C782.293 94.505 782.078 94.2379 769.307 94.3447L757.918 94.4406L753.206 100.865C746.312 110.265 739.604 113.408 727.867 112.737C720.959 112.343 716.699 111.135 712.802 108.465C693.583 95.2951 693.63 66.4659 712.894 53.2663C717.464 50.1341 720.357 49.4807 729.652 49.4807C739.584 49.4807 741.565 49.9991 746.759 53.9622C749.992 56.4268 753.407 60.1387 754.351 62.209C755.947 65.7135 756.916 65.9742 768.298 65.9742H780.532L778.78 60.8691C774.621 48.7487 766.038 39.1966 753.388 32.6133C748.366 29.9979 743.593 29.1496 732 28.8088C723.792 28.5684 715.31 28.9501 713.15 29.657ZM0 80.897V131.948H10.9643H21.9302L22.3527 97.7833L22.7768 63.618L36.1963 86.3948L49.6142 109.172L58.2223 109.632L66.8288 110.092L80.9316 86.0697L95.0343 62.0472L95.4569 96.9978L95.8794 131.948H106.845H117.811V80.897V29.8455H104.618H91.423L75.118 57.916L58.8113 85.9864L42.379 57.916L25.9483 29.8455H12.9734H0V80.897ZM369.142 80.897V131.948H379.352H389.562V111.528V91.1073H397.905H406.249L420.289 111.52L434.33 131.931L447.382 131.941C457.421 131.947 460.156 131.495 459.228 129.985C458.565 128.906 450.384 117.071 441.049 103.686C431.713 90.3015 424.37 78.5832 424.731 77.6438C425.091 76.7045 432.043 66.4486 440.179 54.8544C448.312 43.2587 455.492 32.8897 456.13 31.809C457.021 30.3057 454.38 29.8455 444.869 29.8455H432.445L418.465 50.2582L404.485 70.671L397.024 70.6788L389.562 70.6867V50.2661V29.8455H379.352H369.142V80.897ZM581.202 80.7792V131.948L609.084 131.939C638.533 131.931 645.117 130.94 653.56 125.251C661.469 119.919 664.978 112.726 664.978 101.842C664.978 91.5078 662.319 86.5236 653.656 80.6268C649.095 77.5213 648.924 77.1255 651.76 76.2254C657.086 74.5352 661.313 65.7418 661.307 56.364C661.301 46.1097 657.777 39.6631 649.301 34.393C643.538 30.81 641.768 30.6058 612.225 30.1204L581.202 29.6099V80.7792ZM794.833 80.897V131.948H805.828H816.824V111.528V91.1073H824.414H832.003L846.013 111.487L860.021 131.868L873.073 131.908C883.098 131.939 885.855 131.493 884.958 129.985C884.316 128.906 876.628 117.737 867.876 105.168C859.121 92.5996 851.426 81.4531 850.774 80.399C850.047 79.2225 855.589 69.8589 865.141 56.1284C873.692 43.832 881.205 32.8897 881.837 31.809C882.713 30.3073 880.065 29.8455 870.571 29.8455H858.159L844.254 50.2661L830.347 70.6867H823.586H816.824V50.2661V29.8455H805.828H794.833V80.897ZM895.365 80.897V131.948L908.324 131.915L921.283 131.883L943.667 94.6558L966.051 57.429V94.6887V131.948H976.262H986.472V80.8342V29.7183L973.621 30.1754L960.772 30.6309L939.456 65.9742L918.142 101.318L917.719 65.5815L917.296 29.8455H906.331H895.365V80.897ZM1006.89 80.897V131.948H1019.88H1032.87L1054.83 95.5998L1076.79 59.2512L1077.21 95.5998L1077.64 131.948H1087.82H1098V80.897V29.8455H1085.56H1073.11L1051.39 65.8046L1029.67 101.762L1029.25 65.8046L1028.83 29.8455H1017.86H1006.89V80.897ZM171.219 52.2296C160.687 57.8594 154.922 68.0006 154.922 80.897C154.922 100.71 168.605 113.925 187.921 112.766C206.184 111.671 217.417 99.5331 217.417 80.897C217.417 62.2608 206.184 50.1231 187.921 49.0283C180.036 48.5555 177.004 49.1367 171.219 52.2296ZM498.552 51.6139C480.283 60.1544 475.257 84.5099 488.178 101.897C496.921 113.663 517.565 116.636 530.603 108.008C548.274 96.313 548.337 66.2523 530.714 54.0392C522.276 48.1926 508.152 47.1276 498.552 51.6139ZM603.193 59.691V70.6867H616.649C634.669 70.6867 639.251 68.2409 639.298 58.6024C639.336 50.7028 634.972 48.6953 617.766 48.6953H603.193V59.691ZM603.193 100.389V113.099H618.689C631.988 113.099 634.773 112.637 638.324 109.842C641.49 107.354 642.464 105.193 642.464 100.661C642.464 90.845 638.782 88.8469 619.526 88.2154L603.193 87.6798V100.389ZM227.03 172.152C219.097 175.056 212.462 181.277 208.755 189.283C203.639 200.336 204.173 201.064 217.388 201.064C228.543 201.064 229.039 200.906 230.01 197.034C232.331 187.788 253.19 185.65 260.311 193.928C264.84 199.194 264.814 201.394 260.16 206.806C256.86 210.64 255.11 211.224 245.237 211.782L234.052 212.415V221.662V230.91H245.621C254.946 230.91 257.992 231.541 261.329 234.166C266.393 238.15 266.99 246.324 262.512 250.377C258.237 254.244 248.853 256.431 241.706 255.225C234.482 254.004 226.197 247.653 226.197 243.337C226.197 240.646 224.966 240.335 214.292 240.335H202.385L203.461 245.44C207.825 266.148 223.887 275.953 251.177 274.569C272.087 273.509 285.725 264.374 288.044 249.874C289.914 238.178 283.433 224.071 274.88 221.219C273.133 220.637 273.999 219.064 278.295 215.012C292.189 201.909 285.513 178.811 265.901 172.128C256.792 169.024 235.539 169.037 227.03 172.152ZM530.936 171.03C516.814 175.652 503.542 187.452 497.463 200.788C494.856 206.509 494.105 211.259 494.069 222.27C494.028 234.63 494.574 237.534 498.42 245.366C507.534 263.924 525.739 274.893 547.429 274.893C568.527 274.893 585.946 264.874 594.422 247.864C600.93 234.805 600.507 234.051 586.7 234.051C578.834 234.051 574.918 234.655 574.918 235.867C574.918 239.628 566.402 248.641 560.178 251.467C548.081 256.96 533.611 253.971 524.36 244.067C518.785 238.098 516.575 231.865 516.575 222.096C516.572 203.411 529.428 190.069 547.429 190.069C557.236 190.069 563.882 193.184 570.453 200.86L576.005 207.348H587.348C598.388 207.348 598.663 207.253 597.603 203.813C594.04 192.265 584.028 180.589 572.661 174.728C566.015 171.299 562.258 170.554 549.785 170.185C541.578 169.943 533.095 170.324 530.936 171.03ZM0 222.27V273.322H27.2097C59.0815 273.322 65.9365 271.724 74.4378 262.314C79.6498 256.546 83.236 247.906 83.236 241.12C83.236 234.334 79.6498 225.695 74.4378 219.927C66.8712 211.551 58.205 208.918 38.2054 208.918H21.9914V200.279V191.639H47.9099H73.8283V181.429V171.219H36.9142H0V222.27ZM97.3906 222.27V273.322H110.444H123.498L145.395 237.034L167.292 200.745L167.713 237.034L168.135 273.322H179.101H190.069V222.27V171.219H176.855H163.643L141.904 207.321L120.167 243.421L119.746 207.321L119.324 171.219H108.358H97.3906V222.27ZM304.738 222.27V273.322H315.734H326.73V252.901V232.481H347.936H369.142V252.901V273.322H380.137H391.133V222.27V171.219H380.137H369.142V190.854V210.489H347.936H326.73V190.854V171.219H315.734H304.738V222.27ZM411.554 222.27V273.322H449.253H486.953V263.112V252.901H460.249H433.545V241.906V230.91H456.322H479.099V221.485V212.06H456.322H433.545V201.85V191.639H460.249H486.953V181.429V171.219H449.253H411.554V222.27ZM20.4206 241.12V252.901H35.9167C49.2152 252.901 52.0003 252.439 55.5519 249.645C60.8989 245.44 61.2367 237.185 56.2525 232.542C53.2538 229.747 50.7468 229.339 36.6173 229.339H20.4206V241.12ZM0 363.644V414.695H10.9957H21.9914V393.489V372.283L29.4528 372.343L36.9142 372.403L51.0515 393.5L65.1888 414.596L78.1481 414.645C85.2764 414.673 91.1073 414.392 91.1073 414.021C91.1073 413.649 82.9375 401.631 72.9534 387.313C61.5398 370.945 55.244 360.551 55.9996 359.319C56.6593 358.242 63.64 348.171 71.5129 336.94C79.3859 325.709 86.3509 315.636 86.9886 314.556C87.8793 313.052 85.2497 312.592 75.7809 312.592H63.4122L50.043 331.835L36.6738 351.077L29.3318 351.556L21.9914 352.035V332.314V312.592H10.9957H0V363.644ZM115.738 313.77C115.359 314.418 114.552 326.612 113.942 340.867C111.947 387.594 110.537 392.932 99.6447 394.975L94.2489 395.988V406.342V416.696L104.362 415.884C121.364 414.519 128.541 407.773 131.817 390.071C132.588 385.904 133.725 371.36 134.346 357.753L135.47 333.013H150.988H166.506V373.854V414.695H177.502H188.498V363.644V312.592H152.462C132.641 312.592 116.116 313.123 115.738 313.77ZM199.494 313.39C199.494 313.83 207.7 330.589 217.728 350.633L235.963 387.076L231.779 390.674C228.945 393.112 225.591 394.275 221.397 394.275H215.202V404.692V415.108L226.788 414.365C240.545 413.483 247.484 409.86 252.491 400.951C255.534 395.538 290.601 314.831 290.601 313.241C290.601 312.884 285.372 312.592 278.982 312.592H267.362L257.279 337.791L247.198 362.992L235.206 337.791L223.216 312.592H211.355C204.831 312.592 199.494 312.952 199.494 313.39ZM298.455 363.644V414.695H324.873C344.046 414.695 353.518 414.034 359.409 412.286C374.539 407.792 383.342 393.653 381.116 377.418C379.683 366.964 374.069 359.316 364.227 354.412C356.77 350.696 354.216 350.292 338.203 350.292H320.446V340.867V331.442H347.15H373.854V322.017V312.592H336.155H298.455V363.644ZM320.446 381.708V394.275H334.51C342.245 394.275 350.326 393.477 352.467 392.5C358.121 389.923 360.571 383.134 357.877 377.506C355.095 371.694 347.915 369.341 332.62 369.23L320.446 369.142V381.708Z" fill="var(--fill-0, #F1F1F1)"/>
</svg>
