<svg width="326" height="326" viewBox="0 0 326 326" fill="none" xmlns="http://www.w3.org/2000/svg"><path d="M163 0L164.954 125.724L180.038 0.892929L168.839 126.133L196.89 3.56194L172.661 126.945L213.37 7.97778L176.377 128.152L229.298 14.0921L179.946 129.741L244.5 21.8379L183.33 131.695L258.809 31.1302L186.491 133.991L272.068 41.8674L189.394 136.606L284.133 53.9317L192.009 139.509L294.87 67.191L194.305 142.67L304.162 81.5L196.259 146.054L311.908 96.7019L197.848 149.623L318.022 112.63L199.055 153.339L322.438 129.11L199.867 157.161L325.107 145.962L200.276 161.046L326 163L200.276 164.954L325.107 180.038L199.867 168.839L322.438 196.89L199.055 172.661L318.022 213.37L197.848 176.377L311.908 229.298L196.259 179.946L304.162 244.5L194.305 183.33L294.87 258.809L192.009 186.491L284.133 272.068L189.394 189.394L272.068 284.133L186.491 192.009L258.809 294.87L183.33 194.305L244.5 304.162L179.946 196.259L229.298 311.908L176.377 197.848L213.37 318.022L172.661 199.055L196.89 322.438L168.839 199.867L180.038 325.107L164.954 200.276L163 326L161.046 200.276L145.962 325.107L157.161 199.867L129.11 322.438L153.339 199.055L112.63 318.022L149.623 197.848L96.7019 311.908L146.054 196.259L81.5 304.162L142.67 194.305L67.191 294.87L139.509 192.009L53.9317 284.133L136.606 189.394L41.8674 272.068L133.991 186.491L31.1302 258.809L131.695 183.33L21.8379 244.5L129.741 179.946L14.0921 229.298L128.152 176.377L7.97778 213.37L126.945 172.661L3.56194 196.89L126.133 168.839L0.892929 180.038L125.724 164.954L0 163L125.724 161.046L0.892929 145.962L126.133 157.161L3.56194 129.11L126.945 153.339L7.97778 112.63L128.152 149.623L14.0921 96.7019L129.741 146.054L21.8379 81.5L131.695 142.67L31.1302 67.191L133.991 139.509L41.8674 53.9317L136.606 136.606L53.9317 41.8674L139.509 133.991L67.191 31.1302L142.67 131.695L81.5 21.8379L146.054 129.741L96.7019 14.0921L149.623 128.152L112.63 7.97778L153.339 126.945L129.11 3.56194L157.161 126.133L145.962 0.892929L161.046 125.724L163 0Z" fill="url(#paint0_radial_2220_3224)"/><g filter="url(#filter0_f_2220_3224)"><circle cx="163.25" cy="164.208" r="41.626" fill="#DC1924"/></g><defs><filter id="filter0_f_2220_3224" x="84.1128" y="85.0708" width="158.274" height="158.274" filterUnits="userSpaceOnUse" color-interpolation-filters="sRGB"><feFlood flood-opacity="0" result="BackgroundImageFix"/><feBlend mode="normal" in="SourceGraphic" in2="BackgroundImageFix" result="shape"/><feGaussianBlur stdDeviation="18.7556" result="effect1_foregroundBlur_2220_3224"/></filter><radialGradient id="paint0_radial_2220_3224" cx="0" cy="0" r="1" gradientUnits="userSpaceOnUse" gradientTransform="translate(163 163) rotate(90) scale(223.39)"><stop stop-color="#DC1924"/><stop offset="1" stop-color="#760D13" stop-opacity="0"/></radialGradient></defs></svg>
