<svg width="375" height="910" viewBox="0 0 375 910" fill="none" xmlns="http://www.w3.org/2000/svg">
<mask id="path-1-inside-1_3681_4026" fill="white">
<path d="M474 787.723C474 820.86 447.137 847.723 414 847.723H304.922C287.724 847.723 273.783 861.664 273.783 878.861C273.783 896.059 259.842 910 242.645 910H132.922C115.724 910 101.783 896.059 101.783 878.861C101.783 861.664 87.8419 847.723 70.6445 847.723H-37C-70.1371 847.723 -97 820.86 -97 787.723V0.999981C-97 -32.1371 -70.1371 -59 -37 -59H414C447.137 -59 474 -32.1371 474 1V787.723Z"/>
</mask>
<path d="M474 787.723C474 820.86 447.137 847.723 414 847.723H304.922C287.724 847.723 273.783 861.664 273.783 878.861C273.783 896.059 259.842 910 242.645 910H132.922C115.724 910 101.783 896.059 101.783 878.861C101.783 861.664 87.8419 847.723 70.6445 847.723H-37C-70.1371 847.723 -97 820.86 -97 787.723V0.999981C-97 -32.1371 -70.1371 -59 -37 -59H414C447.137 -59 474 -32.1371 474 1V787.723Z" fill="#0F0F0F"/>
<path d="M414 847.723V847.223H304.922V847.723V848.223H414V847.723ZM242.645 910V909.5H132.922V910V910.5H242.645V910ZM70.6445 847.723V847.223H-37V847.723V848.223H70.6445V847.723ZM-97 787.723H-96.5V0.999981H-97H-97.5V787.723H-97ZM-37 -59V-58.5H414V-59V-59.5H-37V-59ZM474 1H473.5V787.723H474H474.5V1H474ZM414 -59V-58.5C446.861 -58.5 473.5 -31.8609 473.5 1H474H474.5C474.5 -32.4132 447.413 -59.5 414 -59.5V-59ZM-97 0.999981H-96.5C-96.5 -31.861 -69.8609 -58.5 -37 -58.5V-59V-59.5C-70.4132 -59.5 -97.5 -32.4132 -97.5 0.999981H-97ZM-37 847.723V847.223C-69.8609 847.223 -96.5 820.584 -96.5 787.723H-97H-97.5C-97.5 821.136 -70.4132 848.223 -37 848.223V847.723ZM101.783 878.861H102.283C102.283 861.388 88.1181 847.223 70.6445 847.223V847.723V848.223C87.5658 848.223 101.283 861.94 101.283 878.861H101.783ZM132.922 910V909.5C116.001 909.5 102.283 895.783 102.283 878.861H101.783H101.283C101.283 896.335 115.448 910.5 132.922 910.5V910ZM273.783 878.861H273.283C273.283 895.783 259.566 909.5 242.645 909.5V910V910.5C260.118 910.5 274.283 896.335 274.283 878.861H273.783ZM304.922 847.723V847.223C287.448 847.223 273.283 861.388 273.283 878.861H273.783H274.283C274.283 861.94 288.001 848.223 304.922 848.223V847.723ZM414 847.723V848.223C447.413 848.223 474.5 821.136 474.5 787.723H474H473.5C473.5 820.584 446.861 847.223 414 847.223V847.723Z" fill="white" mask="url(#path-1-inside-1_3681_4026)"/>
</svg>
