<svg width="68" height="68" viewBox="0 0 68 68" fill="none" xmlns="http://www.w3.org/2000/svg">
<path fill-rule="evenodd" clip-rule="evenodd" d="M16.4485 15.7586C15.8413 16.0618 15.4677 16.8076 15.5884 17.4747C15.6659 17.9028 16.6376 18.9248 23.529 25.8253L31.3814 33.688L23.4544 41.619L15.5273 49.5502V50.2516C15.5273 50.8739 15.5779 51.0037 15.9748 51.4005C16.3716 51.7974 16.5014 51.848 17.1237 51.848H17.8251L25.7563 43.9209L33.6873 35.9938L41.6183 43.9209L49.5495 51.848H50.2509C50.8732 51.848 51.0029 51.7974 51.3998 51.4005C51.7967 51.0037 51.8472 50.8739 51.8472 50.2516V49.5502L43.9201 41.619L35.9931 33.688L43.9201 25.757L51.8472 17.8258V17.1244C51.8472 16.5021 51.7967 16.3724 51.3998 15.9755C51.0029 15.5786 50.8732 15.5281 50.2509 15.5281H49.5495L41.6178 23.4557L33.6862 31.3833L25.8898 23.5933C21.5671 19.2742 17.9284 15.742 17.723 15.6657C17.2112 15.4756 16.9815 15.4923 16.4485 15.7586Z" fill="#7F7A73"/>
</svg>
