<svg width="19" height="19" viewBox="0 0 19 19" fill="none" xmlns="http://www.w3.org/2000/svg">
<path d="M14.5 5C15 5 16 5.4 16 7C16 9 16.5 10.5 16 11C15.6 11.4 14.5 11.8333 14 12L15.5 14.5L16.5 16H14L10.5 12H5V16L4.5 15.5H2.5V5H14.5ZM5.5 7.5V9.5H13V7L5.5 7.5Z" fill="white"/>
<path fill-rule="evenodd" clip-rule="evenodd" d="M15.7078 2.46516C15.1743 2.82726 15.0513 3.38527 15.393 3.89295C15.9505 4.72152 17.2265 4.32817 17.2265 3.32776C17.2265 3.02266 17.1755 2.89726 16.952 2.65347C16.5819 2.24966 16.1267 2.18075 15.7078 2.46516ZM1.76143 4.04571L1.56205 4.20717L1.53925 10.1464C1.52338 14.2818 1.54432 16.1529 1.60833 16.3074C1.76008 16.6739 1.995 16.7199 3.71463 16.7199C5.27938 16.7199 5.31502 16.7159 5.54732 16.5163L5.78428 16.3126L5.81028 14.6163L5.83638 12.9199H8.18554H10.5348L11.8121 14.7688C12.5147 15.7857 13.1494 16.6407 13.2226 16.6688C13.4709 16.7641 16.8692 16.7251 17.0901 16.6245C17.3223 16.5187 17.5263 16.1183 17.4497 15.9188C17.4226 15.848 16.866 15.0887 16.2129 14.2314L15.0255 12.6727L15.3744 12.4948C16.2141 12.0664 16.7766 11.2523 16.9868 10.1614C17.0389 9.89044 17.0815 9.07978 17.0814 8.35989C17.0813 6.97061 16.9732 6.31971 16.6313 5.64973C16.2156 4.83493 15.1663 4.13877 14.1021 3.97173C13.7686 3.91938 11.2786 3.88535 7.75698 3.88501C2.17571 3.88433 1.95337 3.89033 1.76143 4.04571ZM2.7865 10.3021V15.4532H3.67316H4.55983V13.7352C4.55983 12.0962 4.56802 12.0097 4.7375 11.8563C4.90394 11.7056 5.10205 11.6939 7.89066 11.6713C9.64778 11.657 10.9534 11.6802 11.079 11.728C11.2214 11.7822 11.7082 12.4115 12.5492 13.6288L13.8065 15.4485L14.6769 15.4509C15.5051 15.4531 15.5418 15.4457 15.4369 15.2983C15.3762 15.2131 14.88 14.5557 14.3343 13.8374C13.2347 12.3902 13.1457 12.1577 13.5646 11.8283C13.6869 11.732 13.8565 11.6532 13.9414 11.6532C14.2823 11.6532 15.03 11.2966 15.2756 11.0169C15.6891 10.5459 15.7909 10.0375 15.7909 8.44433C15.7909 6.79953 15.6944 6.35172 15.2389 5.88271C14.5297 5.15244 14.5161 5.151 8.1868 5.151H2.7865V10.3021ZM4.78623 6.58968L4.55983 6.76769V8.3935C4.55983 9.99153 4.56321 10.0225 4.75853 10.206L4.95723 10.3927L9.10134 10.3685C13.1357 10.345 13.2516 10.3397 13.4785 10.1702C14.0147 9.76977 14.0598 9.63247 14.0598 8.40211C14.0598 7.14245 13.9975 6.97027 13.4176 6.62878C13.1434 6.46715 12.9556 6.45888 9.07178 6.43574C5.05256 6.41184 5.01034 6.41336 4.78623 6.58968ZM5.8265 8.40211V9.11989H9.33094H12.8354V8.40211V7.68433H9.33094H5.8265V8.40211Z" fill="white"/>
</svg>
