<svg width="14" height="14" viewBox="0 0 14 14" fill="none" xmlns="http://www.w3.org/2000/svg">
<path fill-rule="evenodd" clip-rule="evenodd" d="M5.67314 0.0597702C4.58985 0.241109 3.10144 0.972967 2.22208 1.75675C1.40755 2.48265 0.597863 3.71245 0.26495 4.72927C0.0287138 5.45043 -0.00347517 5.74531 0.000272864 7.14895C0.00413113 8.62303 0.0367611 8.87602 0.419391 10.4009C0.64758 11.3104 0.864415 12.3724 0.901233 12.761C0.99317 13.7313 1.19038 13.9207 2.02983 13.8445C2.69599 13.7841 3.39511 13.4876 3.72075 13.1275C3.91619 12.9114 3.92601 12.9134 4.77879 13.3491C5.54405 13.7401 5.74843 13.7948 6.62095 13.8416C8.62956 13.9496 10.5002 13.2419 11.8892 11.8485C13.2973 10.4363 13.9423 8.9102 13.9392 6.9987C13.9359 4.95349 13.3196 3.44281 11.9039 2.00963C11.1865 1.28328 10.8428 1.0304 10.0826 0.669156C9.56723 0.424321 8.88267 0.169896 8.56144 0.103754C8.00342 -0.0110015 6.25508 -0.0376787 5.67314 0.0597702ZM6.22289 3.54908C4.78607 3.8616 3.87056 4.93023 3.57226 6.64297C3.42112 7.51075 3.4963 8.81572 3.74566 9.65539C3.98311 10.455 4.11021 10.5195 4.65632 10.1179L5.11027 9.78415L5.58462 10.0361C5.97155 10.2416 6.23149 10.288 6.99597 10.2878C7.80588 10.2876 8.01202 10.2461 8.51547 9.98224C9.83268 9.29172 10.4706 8.17514 10.3885 6.70382C10.3123 5.33601 9.62566 4.33749 8.379 3.78146C7.65519 3.45868 6.97569 3.38538 6.22289 3.54908Z" fill="white"/>
</svg>
