<svg width="237" height="90" viewBox="0 0 237 90" fill="none" xmlns="http://www.w3.org/2000/svg">
<path fill-rule="evenodd" clip-rule="evenodd" d="M222.193 1.23518C223.029 6.38578 231.448 6.27626 232.461 1.10193L232.677 0H230.931C229.376 0 229.15 0.0935794 228.859 0.856455C228.473 1.87227 227.813 2.18488 226.663 1.89634C226.144 1.7658 225.74 1.36199 225.61 0.842554C225.42 0.085103 225.227 0 223.696 0H221.993L222.193 1.23518ZM36.618 6.40137C33.5665 7.39989 30.7225 9.89806 29.4311 12.7146C28.2634 15.2609 28.3122 19.8005 29.5348 22.3777C30.6296 24.685 32.3897 26.5101 34.6898 27.7229C36.298 28.5709 36.7676 28.6502 40.1781 28.6489C43.4598 28.6475 44.1112 28.5465 45.603 27.809C47.7662 26.74 49.7978 24.707 50.8624 22.5472C51.5809 21.0899 51.6986 20.3759 51.7019 17.4614C51.705 14.4139 51.6111 13.8918 50.7733 12.302C49.5828 10.0428 47.9103 8.37705 45.6766 7.22562C44.1841 6.45664 43.4042 6.29932 40.6867 6.21896C38.9151 6.16675 37.0842 6.2488 36.618 6.40137ZM62.0472 6.42002C59.0194 7.34429 56.3314 9.66919 54.9654 12.5451C54.214 14.1268 54.0794 14.873 54.0794 17.4614C54.0794 20.0453 54.2154 20.8031 54.9677 22.4068C56.0493 24.7138 57.7575 26.4782 60.1088 27.7178C61.7278 28.5712 62.1933 28.6502 65.6073 28.6502C69.7767 28.6502 70.9942 28.2291 73.5798 25.893C74.7665 24.8209 76.6266 21.6524 76.6266 20.7034C76.6266 20.4813 75.6542 20.3433 74.0925 20.3433C71.6293 20.3433 71.5438 20.3715 71.0414 21.3429C69.5739 24.1808 65.4408 25.282 62.3863 23.6491C57.9101 21.2564 57.5856 14.5546 61.8038 11.631C64.6234 9.67699 68.9816 10.4148 70.6931 13.136C71.3587 14.1946 71.4194 14.2146 74.0033 14.2271L76.6358 14.2403L76.1075 12.9689C74.1864 8.34315 70.6735 6.07486 65.5188 6.13216C64.0758 6.1481 62.5134 6.27762 62.0472 6.42002ZM106.75 6.57565C101.442 8.47131 98.7436 12.5952 99.0738 18.3043C99.323 22.6048 101.501 25.9425 105.277 27.809C106.769 28.5465 107.42 28.6475 110.702 28.6489C114.093 28.6502 114.585 28.5682 116.127 27.7463C118.323 26.5752 120.471 24.3401 121.449 22.2082C122.565 19.7734 122.554 15.1568 121.427 12.6461C120.36 10.272 117.664 7.76573 115.173 6.83401C112.906 5.98603 108.757 5.85854 106.75 6.57565ZM153.931 6.40137C150.873 7.40227 148.024 9.90857 146.755 12.7146C145.593 15.2853 145.637 19.8263 146.849 22.3777C147.916 24.6226 149.774 26.5362 152.067 27.7517C153.604 28.5665 154.109 28.6502 157.491 28.6502C160.88 28.6502 161.378 28.5671 162.938 27.7443C164.944 26.6854 166.958 24.5775 167.859 22.5937C168.856 20.3986 168.809 20.341 166.053 20.364L163.594 20.3847L162.577 21.7714C161.089 23.8004 159.641 24.4788 157.108 24.334C155.617 24.2489 154.697 23.9882 153.856 23.4118C149.708 20.5692 149.718 14.3465 153.876 11.4974C154.862 10.8213 155.487 10.6803 157.493 10.6803C159.637 10.6803 160.065 10.7921 161.186 11.6476C161.884 12.1796 162.621 12.9808 162.824 13.4276C163.169 14.1841 163.378 14.2403 165.835 14.2403H168.475L168.097 13.1384C167.2 10.5223 165.347 8.46046 162.617 7.03948C161.533 6.47495 160.502 6.29186 158 6.21828C156.228 6.16641 154.398 6.2488 153.931 6.40137ZM0 17.4614V28.4807H2.36661H4.73356L4.82477 21.1062L4.91631 13.7318L7.81286 18.6481L10.7091 23.5644L12.5671 23.6637L14.4248 23.7631L17.4688 18.5779L20.5129 13.3927L20.6041 20.9367L20.6953 28.4807H23.0622H25.4292V17.4614V6.44206H22.5815H19.7334L16.214 12.501L12.6943 18.5599L9.14739 12.501L5.60087 6.44206H2.80026H0V17.4614ZM79.6781 17.4614V28.4807H81.882H84.0858V24.073V19.6652H85.8866H87.6876L90.7181 24.0713L93.7489 28.477L96.5662 28.479C98.7331 28.4803 99.3233 28.3827 99.123 28.0569C98.9799 27.8239 97.2141 25.2695 95.1991 22.3804C93.1841 19.4913 91.599 16.9619 91.677 16.7592C91.7546 16.5564 93.2553 14.3427 95.0112 11.8402C96.7669 9.33726 98.3167 7.09915 98.4543 6.86588C98.6466 6.5414 98.0766 6.44206 96.0237 6.44206H93.3421L90.3245 10.8481L87.3069 15.2541L85.6964 15.2558L84.0858 15.2575V10.8498V6.44206H81.882H79.6781V17.4614ZM125.451 17.4359V28.4807L131.469 28.4787C137.826 28.477 139.247 28.263 141.069 27.035C142.776 25.8842 143.534 24.3317 143.534 21.9823C143.534 19.7517 142.959 18.6759 141.09 17.4031C140.105 16.7327 140.068 16.6473 140.68 16.453C141.83 16.0882 142.742 14.1902 142.741 12.166C142.74 9.95264 141.979 8.56116 140.15 7.42363C138.906 6.65024 138.524 6.60616 132.147 6.50139L125.451 6.3912V17.4359ZM171.562 17.4614V28.4807H173.936H176.309V24.073V19.6652H177.947H179.585L182.609 24.0641L185.633 28.4634L188.45 28.4719C190.614 28.4787 191.209 28.3824 191.016 28.0569C190.877 27.8239 189.218 25.4132 187.328 22.7001C185.439 19.9873 183.778 17.5814 183.637 17.3539C183.48 17.0999 184.676 15.0788 186.738 12.1151C188.584 9.46101 190.206 7.09915 190.342 6.86588C190.531 6.54174 189.959 6.44206 187.91 6.44206H185.231L182.23 10.8498L179.228 15.2575H177.769H176.309V10.8498V6.44206H173.936H171.562V17.4614ZM193.262 17.4614V28.4807L196.059 28.4736L198.856 28.4664L203.688 20.4312L208.519 12.3959V20.4383V28.4807H210.723H212.927V17.4478V6.4146L210.153 6.51326L207.38 6.61159L202.779 14.2403L198.178 21.8691L198.087 14.1556L197.996 6.44206H195.629H193.262V17.4614ZM217.335 17.4614V28.4807H220.138H222.942L227.682 20.6349L232.423 12.7892L232.514 20.6349L232.605 28.4807H234.802H237V17.4614V6.44206H234.314H231.628L226.94 14.2037L222.251 21.965L222.16 14.2037L222.069 6.44206H219.702H217.335V17.4614ZM36.9571 11.2736C34.6837 12.4888 33.4394 14.6777 33.4394 17.4614C33.4394 21.7379 36.3929 24.5904 40.5623 24.3401C44.5041 24.1038 46.9287 21.4839 46.9287 17.4614C46.9287 13.4388 44.5041 10.8189 40.5623 10.5826C38.8602 10.4806 38.2058 10.606 36.9571 11.2736ZM107.611 11.1407C103.668 12.9841 102.583 18.2412 105.372 21.9942C107.259 24.5337 111.715 25.1756 114.529 23.3131C118.343 20.7889 118.357 14.3004 114.553 11.6642C112.732 10.4022 109.683 10.1724 107.611 11.1407ZM130.197 12.8841V15.2575H133.102C136.991 15.2575 137.98 14.7296 137.991 12.6492C137.999 10.944 137.057 10.5107 133.343 10.5107H130.197V12.8841ZM130.197 21.6687V24.412H133.542C136.413 24.412 137.014 24.3123 137.78 23.7092C138.464 23.1721 138.674 22.7055 138.674 21.7274C138.674 19.6086 137.879 19.1773 133.723 19.041L130.197 18.9254V21.6687ZM49.0037 37.1585C47.2915 37.7854 45.8593 39.1281 45.0592 40.8562C43.9549 43.2418 44.0701 43.3991 46.9226 43.3991C49.3302 43.3991 49.4374 43.3649 49.6469 42.5291C50.148 40.5334 54.6504 40.072 56.1873 41.8588C57.1648 42.9953 57.1594 43.4703 56.1548 44.6384C55.4424 45.466 55.0647 45.5922 52.9337 45.7125L50.5193 45.8492V47.8452V49.8412H53.0165C55.0294 49.8412 55.6869 49.9775 56.407 50.5441C57.5001 51.4039 57.629 53.1684 56.6623 54.0431C55.7398 54.8779 53.7142 55.3498 52.1715 55.0894C50.6122 54.826 48.824 53.4552 48.824 52.5235C48.824 51.9427 48.5582 51.8755 46.2543 51.8755H43.6843L43.9165 52.9775C44.8584 57.4472 48.3253 59.5636 54.2157 59.2649C58.7292 59.0361 61.6729 57.0644 62.1733 53.9346C62.5772 51.41 61.1782 48.3649 59.3321 47.7496C58.955 47.6238 59.1418 47.2844 60.0692 46.4096C63.0681 43.5816 61.6271 38.5957 57.394 37.1534C55.4278 36.4834 50.8404 36.4861 49.0037 37.1585ZM114.601 36.9164C111.553 37.9139 108.688 40.4609 107.376 43.3395C106.813 44.5743 106.651 45.5996 106.643 47.9764C106.634 50.6441 106.752 51.271 107.582 52.9615C109.55 56.9671 113.479 59.3348 118.161 59.3348C122.715 59.3348 126.475 57.1723 128.304 53.5006C129.709 50.6821 129.618 50.5193 126.637 50.5193C124.94 50.5193 124.094 50.6495 124.094 50.9113C124.094 51.723 122.256 53.6685 120.913 54.2784C118.302 55.4641 115.178 54.8189 113.182 52.6811C111.978 51.3927 111.501 50.0473 111.501 47.9388C111.501 43.9057 114.275 41.0257 118.161 41.0257C120.278 41.0257 121.712 41.6981 123.13 43.3551L124.329 44.7554H126.777C129.16 44.7554 129.22 44.735 128.991 43.9925C128.222 41.4997 126.061 38.9795 123.607 37.7145C122.173 36.9744 121.362 36.8137 118.67 36.734C116.898 36.6818 115.067 36.7638 114.601 36.9164ZM0 47.9764V58.9957H5.87312C12.7526 58.9957 14.2322 58.6509 16.0672 56.6196C17.1922 55.3746 17.9662 53.5098 17.9662 52.0451C17.9662 50.5803 17.1922 48.7155 16.0672 47.4705C14.4339 45.6627 12.5634 45.0944 8.24651 45.0944H4.74678V43.2296V41.3648H10.3412H15.9356V39.1609V36.9571H7.96781H0V47.9764ZM21.0215 47.9764V58.9957H23.839H26.6566L31.383 51.1632L36.1094 43.3303L36.2003 51.1632L36.2915 58.9957H38.6585H41.0258V47.9764V36.9571H38.1736H35.3218L30.6296 44.7496L25.9378 52.5418L25.8469 44.7496L25.7557 36.9571H23.3887H21.0215V47.9764ZM65.7768 47.9764V58.9957H68.1502H70.5236V54.588V50.1803H75.1009H79.6781V54.588V58.9957H82.0515H84.4249V47.9764V36.9571H82.0515H79.6781V41.1953V45.4335H75.1009H70.5236V41.1953V36.9571H68.1502H65.7768V47.9764ZM88.8326 47.9764V58.9957H96.97H105.107V56.7918V54.588H99.3434H93.5794V52.2146V49.8412H98.4957H103.412V47.8069V45.7725H98.4957H93.5794V43.5687V41.3648H99.3434H105.107V39.1609V36.9571H96.97H88.8326V47.9764ZM4.40773 52.0451V54.588H7.75251C10.623 54.588 11.2241 54.4883 11.9907 53.8851C13.1449 52.9775 13.2178 51.1957 12.1419 50.1935C11.4947 49.5903 10.9535 49.5021 7.90373 49.5021H4.40773V52.0451ZM0 78.4914V89.5107H2.37339H4.74678V84.9335V80.3562L6.3573 80.3691L7.96781 80.382L11.0193 84.9358L14.0708 89.4894L16.868 89.4999C18.4067 89.506 19.6652 89.4453 19.6652 89.3653C19.6652 89.2849 17.9018 86.6908 15.7468 83.6003C13.2832 80.0673 11.9243 77.8238 12.0873 77.558C12.2297 77.3254 13.7365 75.1517 15.4359 72.7275C17.1352 70.3032 18.6386 68.1292 18.7762 67.8959C18.9685 67.5714 18.4009 67.4721 16.3571 67.4721H13.6873L10.8016 71.6255L7.91593 75.779L6.33119 75.8824L4.74678 75.9858V71.7289V67.4721H2.37339H0V78.4914ZM24.9816 67.7264C24.8999 67.8661 24.7256 70.4982 24.5941 73.5751C24.1635 83.661 23.859 84.8131 21.508 85.2542L20.3433 85.4729V87.7076V89.9427L22.5262 89.7674C26.1961 89.4727 27.7453 88.0165 28.4522 84.1957C28.6187 83.2962 28.8642 80.1569 28.9981 77.22L29.2409 71.8798H32.5904H35.9399V80.6953V89.5107H38.3133H40.6867V78.4914V67.4721H32.9084C28.6302 67.4721 25.0633 67.5867 24.9816 67.7264ZM43.0601 67.6443C43.0601 67.7393 44.8313 71.3567 46.9958 75.683L50.9319 83.5491L50.0287 84.3259C49.417 84.8521 48.6932 85.103 47.7879 85.103H46.4506V87.3516V89.5999L48.9515 89.4395C51.921 89.249 53.4186 88.4671 54.4995 86.544C55.1562 85.3756 62.7253 67.9553 62.7253 67.6121C62.7253 67.5352 61.5966 67.4721 60.2173 67.4721H57.7093L55.5329 72.9112L53.3569 78.3507L50.7685 72.9112L48.1805 67.4721H45.6203C44.2122 67.4721 43.0601 67.5497 43.0601 67.6443ZM64.4206 78.4914V89.5107H70.1228C74.2614 89.5107 76.3059 89.368 77.5773 88.9906C80.8431 88.0206 82.7432 84.9687 82.2627 81.4646C81.9535 79.2082 80.7417 77.5573 78.6172 76.4988C77.0077 75.6966 76.4564 75.6094 73.0001 75.6094H69.1674V73.5751V71.5408H74.9313H80.6953V69.5064V67.4721H72.5579H64.4206V78.4914ZM69.1674 82.3906V85.103H72.2029C73.8725 85.103 75.6169 84.9308 76.079 84.7199C77.2993 84.1638 77.8282 82.6984 77.2467 81.4836C76.6463 80.2291 75.0965 79.7212 71.7951 79.6971L69.1674 79.6781V82.3906Z" fill="#523A25"/>
</svg>
